<?xml version="1.0" encoding="UTF-8" standalone="no"?>
<!-- Generator: Adobe Illustrator 27.5.0, SVG Export Plug-In . SVG Version: 6.00 Build 0)  -->

<svg
   version="1.1"
   id="Ebene_1"
   x="0px"
   y="0px"
   width="285"
   height="65"
   viewBox="0 0 285 65"
   enable-background="new 0 0 403.9 110"
   xml:space="preserve"
   sodipodi:docname="CCLS_logo.svg"
   inkscape:version="1.2.2 (732a01da63, 2022-12-09)"
   xmlns:inkscape="http://www.inkscape.org/namespaces/inkscape"
   xmlns:sodipodi="http://sodipodi.sourceforge.net/DTD/sodipodi-0.dtd"
   xmlns="http://www.w3.org/2000/svg"
   xmlns:svg="http://www.w3.org/2000/svg"><defs
   id="defs55" /><sodipodi:namedview
   id="namedview53"
   pagecolor="#ffffff"
   bordercolor="#000000"
   borderopacity="0.25"
   inkscape:showpageshadow="2"
   inkscape:pageopacity="0.0"
   inkscape:pagecheckerboard="0"
   inkscape:deskcolor="#d1d1d1"
   showgrid="false"
   inkscape:zoom="2.9858876"
   inkscape:cx="164.60767"
   inkscape:cy="54.925041"
   inkscape:window-width="1920"
   inkscape:window-height="1009"
   inkscape:window-x="1912"
   inkscape:window-y="-8"
   inkscape:window-maximized="1"
   inkscape:current-layer="g50" />
<g
   id="g50"
   transform="matrix(1.0823545,0,0,1.0823545,-15.798361,-35.396263)"><g
   id="g318"
   transform="matrix(1.6627629,0,0,1.6627629,-22.20502,-56.100315)"><path
     fill="#03559f"
     d="m 166.7,84.6 v 0.2 c 0,0.3 0,0.5 0.1,0.7 0.1,0.2 0.2,0.4 0.3,0.6 0.2,0.2 0.4,0.3 0.6,0.4 0.3,0.1 0.6,0.1 1,0.1 0.3,0 0.6,0 0.8,-0.1 0.3,-0.1 0.5,-0.2 0.6,-0.3 0.2,-0.1 0.3,-0.3 0.4,-0.5 0.1,-0.2 0.2,-0.5 0.2,-0.8 0,-0.4 -0.1,-0.7 -0.3,-1 -0.2,-0.2 -0.5,-0.4 -0.9,-0.6 L 168.7,83 c -0.2,-0.1 -0.4,-0.2 -0.5,-0.3 -0.1,-0.1 -0.1,-0.2 -0.1,-0.4 0,-0.2 0.1,-0.3 0.2,-0.4 0.1,-0.1 0.3,-0.1 0.5,-0.1 0.2,0 0.4,0.1 0.5,0.2 0.1,0.1 0.1,0.3 0.1,0.6 h 1.3 v -0.2 c 0,-0.5 -0.2,-0.9 -0.5,-1.2 -0.3,-0.3 -0.8,-0.4 -1.4,-0.4 -0.4,0 -0.7,0 -0.9,0.1 -0.3,0.1 -0.5,0.2 -0.6,0.4 -0.2,0.2 -0.3,0.3 -0.4,0.5 -0.1,0.2 -0.1,0.4 -0.1,0.6 0,0.4 0.1,0.7 0.3,1 0.2,0.2 0.5,0.4 0.9,0.6 l 1,0.4 c 0.1,0.1 0.3,0.1 0.4,0.2 0.1,0.1 0.2,0.2 0.2,0.4 0,0.2 -0.1,0.4 -0.2,0.5 -0.1,0.1 -0.3,0.2 -0.5,0.2 -0.2,0 -0.4,-0.1 -0.5,-0.2 -0.1,-0.1 -0.2,-0.3 -0.2,-0.6 v -0.2 h -1.5 z M 163.3,83 v -0.2 c 0,-0.1 0,-0.3 0,-0.4 0,-0.1 0.1,-0.2 0.1,-0.4 0.1,-0.1 0.1,-0.2 0.2,-0.3 0.1,-0.1 0.2,-0.1 0.4,-0.1 0.1,0 0.3,0 0.4,0.1 0.1,0.1 0.2,0.1 0.2,0.3 0.1,0.1 0.1,0.2 0.1,0.4 0,0.2 0,0.3 0,0.6 z m 2.8,0.8 v -0.3 c 0,-0.4 0,-0.8 -0.1,-1.2 -0.1,-0.3 -0.2,-0.6 -0.3,-0.9 -0.2,-0.2 -0.4,-0.4 -0.6,-0.6 -0.3,-0.1 -0.6,-0.2 -1,-0.2 -0.5,0 -0.9,0.1 -1.1,0.2 -0.3,0.2 -0.5,0.4 -0.7,0.6 -0.2,0.3 -0.3,0.6 -0.3,0.9 -0.1,0.3 -0.1,0.7 -0.1,1.1 0,0.3 0,0.7 0,1 0,0.4 0.1,0.7 0.3,1 0.1,0.3 0.3,0.5 0.6,0.7 0.3,0.2 0.7,0.3 1.2,0.3 0.7,0 1.2,-0.2 1.5,-0.5 0.3,-0.3 0.5,-0.8 0.5,-1.5 h -1.3 c 0,0.3 -0.1,0.6 -0.2,0.8 -0.1,0.2 -0.3,0.3 -0.5,0.3 -0.1,0 -0.2,0 -0.3,-0.1 -0.1,-0.1 -0.2,-0.2 -0.2,-0.3 -0.1,-0.1 -0.1,-0.3 -0.1,-0.4 0,-0.2 0,-0.3 0,-0.5 v -0.4 z m -4.8,-0.9 c 0,-0.7 -0.2,-1.2 -0.5,-1.6 -0.3,-0.4 -0.8,-0.6 -1.5,-0.6 -0.3,0 -0.6,0 -0.9,0.1 -0.3,0.1 -0.5,0.2 -0.7,0.5 -0.2,0.2 -0.4,0.5 -0.5,0.9 -0.1,0.4 -0.2,0.8 -0.2,1.4 0,0.6 0,1 0.1,1.4 0.1,0.4 0.2,0.7 0.4,0.9 0.2,0.2 0.4,0.4 0.7,0.5 0.3,0.1 0.6,0.1 0.9,0.1 0.8,0 1.3,-0.2 1.6,-0.6 0.3,-0.4 0.5,-0.9 0.5,-1.7 h -1.4 c 0,0.4 -0.1,0.8 -0.2,1 -0.1,0.2 -0.3,0.3 -0.5,0.3 -0.2,0 -0.3,0 -0.4,-0.1 -0.1,-0.1 -0.2,-0.2 -0.2,-0.3 -0.1,-0.2 -0.1,-0.4 -0.1,-0.6 0,-0.2 0,-0.5 0,-0.9 0,-0.3 0,-0.6 0,-0.8 0,-0.2 0.1,-0.4 0.1,-0.6 0.1,-0.2 0.1,-0.3 0.2,-0.3 0.1,-0.1 0.2,-0.1 0.4,-0.1 0.1,0 0.2,0 0.3,0.1 0.1,0.1 0.1,0.2 0.2,0.3 0,0.1 0.1,0.2 0.1,0.4 0,0.1 0,0.3 0,0.4 h 1.6 z m -9.2,3.5 h 1.4 v -3.7 c 0,-0.6 0.2,-0.9 0.7,-0.9 0.2,0 0.4,0.1 0.5,0.2 0.1,0.1 0.1,0.3 0.1,0.6 v 3.8 h 1.4 v -4.1 c 0,-0.6 -0.1,-1 -0.4,-1.2 -0.2,-0.2 -0.6,-0.4 -1,-0.4 -0.3,0 -0.6,0.1 -0.8,0.2 -0.2,0.1 -0.4,0.3 -0.6,0.6 v 0 -0.6 H 152 v 5.5 z M 148.5,83 v -0.2 c 0,-0.1 0,-0.3 0,-0.4 0,-0.1 0.1,-0.2 0.1,-0.4 0.1,-0.1 0.1,-0.2 0.2,-0.3 0.1,-0.1 0.2,-0.1 0.4,-0.1 0.1,0 0.3,0 0.4,0.1 0.1,0.1 0.2,0.1 0.2,0.3 0.1,0.1 0.1,0.2 0.1,0.4 0,0.2 0,0.3 0,0.6 z m 2.8,0.8 v -0.3 c 0,-0.4 0,-0.8 -0.1,-1.2 -0.1,-0.3 -0.2,-0.6 -0.3,-0.9 -0.1,-0.2 -0.4,-0.4 -0.6,-0.6 -0.3,-0.1 -0.6,-0.2 -1,-0.2 -0.5,0 -0.9,0.1 -1.1,0.2 -0.3,0.2 -0.5,0.4 -0.7,0.6 -0.2,0.3 -0.3,0.6 -0.3,0.9 -0.1,0.3 -0.1,0.7 -0.1,1.1 0,0.3 0,0.7 0,1 0,0.4 0.1,0.7 0.3,1 0.1,0.3 0.3,0.5 0.6,0.7 0.3,0.2 0.7,0.3 1.2,0.3 0.7,0 1.2,-0.2 1.5,-0.5 0.3,-0.3 0.5,-0.8 0.5,-1.5 h -1.3 c 0,0.3 -0.1,0.6 -0.2,0.8 -0.1,0.2 -0.3,0.3 -0.5,0.3 -0.1,0 -0.2,0 -0.3,-0.1 -0.1,-0.1 -0.2,-0.2 -0.2,-0.3 -0.1,-0.1 -0.1,-0.3 -0.1,-0.4 0,-0.2 0,-0.3 0,-0.5 v -0.4 z m -6.5,2.6 h 1.4 v -5.5 h -1.4 z m 0,-6.2 h 1.4 V 79 h -1.4 z m -0.9,2.7 c 0,-0.7 -0.2,-1.2 -0.5,-1.6 -0.3,-0.4 -0.8,-0.6 -1.5,-0.6 -0.3,0 -0.6,0 -0.9,0.1 -0.3,0.1 -0.5,0.2 -0.7,0.5 -0.2,0.2 -0.4,0.5 -0.5,0.9 -0.1,0.4 -0.2,0.8 -0.2,1.4 0,0.6 0,1 0.1,1.4 0.1,0.4 0.2,0.7 0.4,0.9 0.2,0.2 0.4,0.4 0.7,0.5 0.3,0.1 0.6,0.1 0.9,0.1 0.8,0 1.3,-0.2 1.6,-0.6 0.3,-0.4 0.5,-0.9 0.5,-1.7 h -1.4 c 0,0.4 -0.1,0.8 -0.2,1 -0.1,0.2 -0.3,0.3 -0.5,0.3 -0.2,0 -0.3,0 -0.4,-0.1 -0.1,-0.1 -0.2,-0.2 -0.2,-0.3 -0.1,-0.2 -0.1,-0.4 -0.1,-0.6 0,-0.2 0,-0.5 0,-0.9 0,-0.3 0,-0.6 0,-0.8 0,-0.2 0.1,-0.4 0.1,-0.6 0.1,-0.2 0.1,-0.3 0.2,-0.3 0.1,-0.1 0.2,-0.1 0.4,-0.1 0.1,0 0.2,0 0.3,0.1 0.1,0.1 0.1,0.2 0.2,0.3 0,0.1 0.1,0.2 0.1,0.4 0,0.1 0,0.3 0,0.4 h 1.6 z m -9.7,1.2 v 0.3 c 0,0.7 0.2,1.2 0.5,1.6 0.4,0.4 1,0.6 1.8,0.6 0.8,0 1.4,-0.2 1.9,-0.5 0.4,-0.4 0.7,-0.9 0.7,-1.7 0,-0.2 0,-0.4 -0.1,-0.6 0,-0.2 -0.1,-0.4 -0.2,-0.5 -0.1,-0.2 -0.2,-0.3 -0.4,-0.4 -0.2,-0.1 -0.4,-0.3 -0.7,-0.4 L 136.6,82 c -0.3,-0.1 -0.5,-0.3 -0.6,-0.4 -0.1,-0.2 -0.1,-0.3 -0.1,-0.6 0,-0.1 0,-0.2 0,-0.3 0,-0.1 0.1,-0.2 0.1,-0.3 0,-0.1 0.2,-0.1 0.3,-0.2 0.1,0 0.2,-0.1 0.4,-0.1 0.3,0 0.5,0.1 0.6,0.3 0.1,0.2 0.2,0.5 0.2,0.8 h 1.4 V 81 c 0,-0.3 -0.1,-0.6 -0.2,-0.9 -0.1,-0.2 -0.3,-0.5 -0.5,-0.6 -0.2,-0.2 -0.4,-0.3 -0.7,-0.3 -0.3,-0.1 -0.6,-0.1 -0.9,-0.1 -0.7,0 -1.3,0.2 -1.7,0.5 -0.4,0.4 -0.6,0.9 -0.6,1.6 0,0.3 0,0.6 0.1,0.8 0.1,0.2 0.2,0.4 0.4,0.6 0.2,0.2 0.4,0.3 0.6,0.5 0.2,0.1 0.5,0.2 0.8,0.4 0.2,0.1 0.5,0.2 0.6,0.2 0.2,0.1 0.3,0.2 0.4,0.3 0.1,0.1 0.2,0.2 0.2,0.3 0,0.1 0.1,0.3 0.1,0.4 0,0.3 -0.1,0.5 -0.3,0.7 -0.2,0.1 -0.4,0.2 -0.6,0.2 -0.2,0 -0.4,0 -0.5,-0.1 -0.1,-0.1 -0.2,-0.1 -0.3,-0.2 -0.1,-0.1 -0.1,-0.2 -0.2,-0.4 0,-0.1 0,-0.3 0,-0.5 v -0.2 h -1.4 z M 128.5,83 v -0.2 c 0,-0.1 0,-0.3 0,-0.4 0,-0.1 0.1,-0.2 0.1,-0.4 0.1,-0.1 0.1,-0.2 0.2,-0.3 0.1,-0.1 0.2,-0.1 0.4,-0.1 0.1,0 0.3,0 0.4,0.1 0.1,0.1 0.2,0.1 0.2,0.3 0.1,0.1 0.1,0.2 0.1,0.4 0,0.2 0,0.3 0,0.6 z m 2.8,0.8 v -0.3 c 0,-0.4 0,-0.8 -0.1,-1.2 -0.1,-0.3 -0.2,-0.6 -0.3,-0.9 -0.2,-0.2 -0.4,-0.4 -0.6,-0.6 -0.3,-0.1 -0.6,-0.2 -1,-0.2 -0.5,0 -0.9,0.1 -1.1,0.2 -0.3,0.2 -0.5,0.4 -0.7,0.6 -0.2,0.3 -0.3,0.6 -0.3,0.9 -0.1,0.3 -0.1,0.7 -0.1,1.1 0,0.3 0,0.7 0,1 0,0.4 0.1,0.7 0.3,1 0.1,0.3 0.3,0.5 0.6,0.7 0.3,0.2 0.7,0.3 1.2,0.3 0.7,0 1.2,-0.2 1.5,-0.5 0.3,-0.3 0.5,-0.8 0.5,-1.5 h -1.3 c 0,0.3 -0.1,0.6 -0.2,0.8 -0.1,0.2 -0.3,0.3 -0.5,0.3 -0.1,0 -0.2,0 -0.3,-0.1 -0.1,-0.1 -0.2,-0.2 -0.2,-0.3 -0.1,-0.1 -0.1,-0.3 -0.1,-0.4 0,-0.2 0,-0.3 0,-0.5 v -0.4 z m -6.8,2.6 h 1.4 v -4.5 h 0.8 v -1 h -0.8 v -0.5 c 0,-0.2 0,-0.3 0.1,-0.3 0.1,-0.1 0.2,-0.1 0.4,-0.1 h 0.1 c 0.1,0 0.1,0 0.1,0 v -1 c -0.3,0 -0.5,0 -0.8,0 -0.2,0 -0.4,0 -0.6,0.1 -0.2,0 -0.3,0.1 -0.5,0.2 -0.1,0.1 -0.2,0.2 -0.3,0.4 -0.1,0.2 -0.1,0.4 -0.1,0.6 v 0.6 h -0.7 v 1 h 0.7 v 4.5 z m -2.8,0 h 1.4 v -5.5 h -1.4 z m 0,-6.2 h 1.4 V 79 h -1.4 z m -0.8,6.2 v -1.2 h -2.6 v -6.1 h -1.5 v 7.3 z"
     id="path36" /><path
     fill="#03559f"
     d="m 174.5,74.8 h 1.4 v -7.3 h -1.4 z m -2.4,-1.7 c 0,0.2 0,0.3 -0.1,0.4 -0.1,0.1 -0.1,0.2 -0.2,0.3 -0.1,0.1 -0.2,0.1 -0.3,0.1 -0.1,0 -0.2,0 -0.3,0 -0.2,0 -0.3,-0.1 -0.4,-0.2 -0.1,-0.2 -0.1,-0.3 -0.1,-0.5 0,-0.2 0.1,-0.4 0.2,-0.6 0.1,-0.2 0.3,-0.2 0.6,-0.3 0.1,0 0.2,-0.1 0.3,-0.1 0.1,0 0.2,-0.1 0.3,-0.2 z M 170.8,71 v -0.2 c 0,-0.2 0.1,-0.4 0.2,-0.5 0.1,-0.1 0.3,-0.2 0.5,-0.2 0.2,0 0.4,0.1 0.5,0.2 0.1,0.1 0.1,0.3 0.1,0.5 0,0.2 0,0.3 -0.1,0.4 -0.1,0.1 -0.2,0.2 -0.4,0.2 l -0.8,0.2 c -0.2,0.1 -0.5,0.1 -0.6,0.2 -0.2,0.1 -0.3,0.2 -0.4,0.3 -0.1,0.1 -0.2,0.3 -0.3,0.5 -0.1,0.2 -0.1,0.4 -0.1,0.7 0,0.2 0,0.4 0.1,0.6 0,0.2 0.1,0.4 0.2,0.5 0.1,0.1 0.2,0.3 0.4,0.4 0.2,0.1 0.4,0.1 0.6,0.1 0.3,0 0.6,0 0.8,-0.1 0.2,-0.1 0.4,-0.3 0.6,-0.6 v 0 c 0,0.1 0,0.2 0.1,0.3 0,0.1 0.1,0.2 0.1,0.3 h 1.4 c -0.1,-0.2 -0.1,-0.3 -0.1,-0.5 0,-0.1 0,-0.3 0,-0.6 v -2.9 c 0,-0.2 0,-0.5 -0.1,-0.7 -0.1,-0.2 -0.1,-0.4 -0.3,-0.5 -0.1,-0.1 -0.3,-0.3 -0.6,-0.3 -0.3,-0.1 -0.6,-0.1 -1,-0.1 -0.3,0 -0.5,0 -0.8,0.1 -0.3,0.1 -0.4,0.2 -0.6,0.3 -0.2,0.1 -0.3,0.3 -0.4,0.5 -0.1,0.2 -0.2,0.5 -0.2,0.8 V 71 Z m -6.4,3.8 h 1.4 v -3.7 c 0,-0.6 0.2,-0.9 0.7,-0.9 0.2,0 0.4,0.1 0.5,0.2 0.1,0.1 0.1,0.3 0.1,0.6 v 3.8 h 1.4 v -4.1 c 0,-0.6 -0.1,-1 -0.4,-1.2 -0.2,-0.2 -0.6,-0.4 -1,-0.4 -0.3,0 -0.6,0.1 -0.8,0.2 -0.2,0.1 -0.4,0.3 -0.6,0.6 v 0 -0.6 h -1.3 z m -3.7,-3.6 c 0,-0.2 0,-0.4 0.1,-0.6 0.1,-0.2 0.1,-0.3 0.2,-0.4 0.1,-0.1 0.2,-0.1 0.4,-0.1 0.3,0 0.5,0.2 0.6,0.5 0.1,0.3 0.2,0.8 0.2,1.5 0,0.7 -0.1,1.2 -0.2,1.5 -0.1,0.3 -0.3,0.4 -0.6,0.4 -0.2,0 -0.3,0 -0.4,-0.1 -0.1,-0.1 -0.2,-0.2 -0.2,-0.4 0,-0.2 -0.1,-0.4 -0.1,-0.6 0,-0.2 0,-0.5 0,-0.8 0,-0.3 0,-0.6 0,-0.9 m -1.4,2.1 c 0.1,0.4 0.2,0.7 0.3,0.9 0.2,0.2 0.4,0.4 0.7,0.5 0.3,0.1 0.6,0.2 1.1,0.2 0.4,0 0.7,-0.1 1,-0.2 0.3,-0.1 0.5,-0.3 0.7,-0.6 0.2,-0.2 0.3,-0.5 0.4,-0.9 0.1,-0.4 0.1,-0.8 0.1,-1.2 0,-0.5 0,-0.9 -0.1,-1.3 -0.1,-0.4 -0.2,-0.7 -0.3,-0.9 -0.2,-0.2 -0.4,-0.4 -0.7,-0.5 -0.3,-0.1 -0.6,-0.2 -1.1,-0.2 -0.4,0 -0.7,0.1 -1,0.2 -0.3,0.1 -0.5,0.3 -0.7,0.6 -0.2,0.2 -0.3,0.5 -0.4,0.9 -0.1,0.4 -0.1,0.8 -0.1,1.2 0,0.5 0.1,0.9 0.1,1.3 m -2.3,1.5 h 1.4 V 69.3 H 157 Z m 0,-6.2 h 1.4 V 67.4 H 157 Z m -2.9,0.7 h -0.7 v 1 h 0.7 v 3.2 c 0,0.3 0,0.5 0.1,0.7 0,0.2 0.1,0.3 0.2,0.4 0.1,0.1 0.2,0.2 0.4,0.2 0.2,0 0.4,0.1 0.7,0.1 0.2,0 0.3,0 0.5,0 0.1,0 0.3,0 0.5,0 v -1 c 0,0 -0.1,0 -0.2,0 -0.1,0 -0.1,0 -0.2,0 -0.2,0 -0.3,0 -0.4,-0.1 -0.1,-0.1 -0.1,-0.2 -0.1,-0.5 v -3 h 0.8 v -1 h -0.8 v -1.6 h -1.4 v 1.6 z m -2.7,3.8 c 0,0.2 0,0.3 -0.1,0.4 -0.1,0.1 -0.1,0.2 -0.2,0.3 -0.1,0.1 -0.2,0.1 -0.3,0.1 -0.1,0 -0.2,0 -0.3,0 -0.2,0 -0.3,-0.1 -0.4,-0.2 -0.1,-0.2 -0.1,-0.3 -0.1,-0.5 0,-0.2 0.1,-0.4 0.2,-0.6 0.1,-0.2 0.3,-0.2 0.6,-0.3 0.1,0 0.2,-0.1 0.3,-0.1 0.1,0 0.2,-0.1 0.3,-0.2 z M 150,71 v -0.2 c 0,-0.2 0.1,-0.4 0.2,-0.5 0.1,-0.1 0.3,-0.2 0.5,-0.2 0.2,0 0.4,0.1 0.5,0.2 0.1,0.1 0.1,0.3 0.1,0.5 0,0.2 0,0.3 -0.1,0.4 -0.1,0.1 -0.2,0.2 -0.4,0.2 l -0.8,0.2 c -0.2,0.1 -0.5,0.1 -0.6,0.2 -0.2,0.1 -0.3,0.2 -0.4,0.3 -0.1,0.1 -0.2,0.3 -0.3,0.5 -0.1,0.2 -0.1,0.4 -0.1,0.7 0,0.2 0,0.4 0.1,0.6 0,0.2 0.1,0.4 0.2,0.5 0.1,0.1 0.2,0.3 0.4,0.4 0.2,0.1 0.4,0.1 0.6,0.1 0.3,0 0.6,0 0.8,-0.1 0.2,-0.1 0.4,-0.3 0.6,-0.6 v 0 c 0,0.1 0,0.2 0.1,0.3 0,0.1 0.1,0.2 0.1,0.3 h 1.4 c -0.1,-0.2 -0.1,-0.3 -0.1,-0.5 0,-0.1 0,-0.3 0,-0.6 v -2.9 c 0,-0.2 0,-0.5 -0.1,-0.7 -0.1,-0.2 -0.1,-0.4 -0.3,-0.5 -0.1,-0.1 -0.3,-0.3 -0.6,-0.3 -0.3,-0.1 -0.6,-0.1 -1,-0.1 -0.3,0 -0.5,0 -0.8,0.1 -0.3,0.1 -0.4,0.2 -0.6,0.3 -0.2,0.1 -0.3,0.3 -0.4,0.5 -0.1,0.2 -0.2,0.5 -0.2,0.8 V 71 Z m -4.1,-1.7 h -0.7 v 1 h 0.7 v 3.2 c 0,0.3 0,0.5 0.1,0.7 0,0.2 0.1,0.3 0.2,0.4 0.1,0.1 0.2,0.2 0.4,0.2 0.2,0 0.4,0.1 0.7,0.1 0.2,0 0.3,0 0.5,0 0.1,0 0.3,0 0.5,0 v -1 c 0,0 -0.1,0 -0.2,0 -0.1,0 -0.1,0 -0.2,0 -0.2,0 -0.3,0 -0.4,-0.1 -0.1,-0.1 -0.1,-0.2 -0.1,-0.5 v -3 h 0.8 v -1 h -0.8 V 67.7 H 146 v 1.6 z m -2.7,5.5 h 1.3 v -5.5 h -1.4 V 73 c 0,0.6 -0.2,0.9 -0.7,0.9 -0.2,0 -0.4,-0.1 -0.5,-0.2 -0.1,-0.1 -0.1,-0.3 -0.1,-0.6 v -3.8 h -1.4 v 4.1 c 0,0.6 0.1,1 0.4,1.2 0.2,0.2 0.6,0.4 1,0.4 0.3,0 0.6,-0.1 0.8,-0.2 0.2,-0.1 0.4,-0.3 0.6,-0.6 v 0 z m -6.5,-4.1 c 0.1,-0.3 0.3,-0.5 0.6,-0.5 0.3,0 0.5,0.2 0.6,0.5 0.1,0.3 0.1,0.8 0.1,1.4 0,0.6 0,1.1 -0.1,1.4 -0.1,0.3 -0.3,0.5 -0.6,0.5 -0.3,0 -0.5,-0.2 -0.6,-0.5 -0.1,-0.3 -0.1,-0.8 -0.1,-1.4 0,-0.7 0,-1.1 0.1,-1.4 m -1.5,5.9 h 1.4 v -2.3 0 c 0.1,0.2 0.3,0.4 0.5,0.5 0.2,0.1 0.4,0.2 0.7,0.2 0.6,0 1,-0.2 1.3,-0.7 0.3,-0.5 0.4,-1.2 0.4,-2.2 0,-1 -0.1,-1.8 -0.4,-2.2 -0.3,-0.5 -0.7,-0.7 -1.3,-0.7 -0.3,0 -0.5,0.1 -0.7,0.2 -0.2,0.1 -0.4,0.3 -0.5,0.6 v 0 -0.6 h -1.4 z m -7.8,-1.8 h 1.4 v -3.6 c 0,-0.3 0.1,-0.6 0.2,-0.7 0.1,-0.2 0.3,-0.2 0.5,-0.2 0.2,0 0.3,0.1 0.4,0.2 0.1,0.1 0.1,0.3 0.1,0.5 v 3.8 h 1.4 v -3.6 c 0,-0.3 0.1,-0.6 0.2,-0.7 0.1,-0.2 0.3,-0.2 0.5,-0.2 0.2,0 0.3,0.1 0.4,0.2 0.1,0.1 0.1,0.3 0.1,0.5 v 3.8 h 1.4 v -4 c 0,-0.5 -0.1,-0.9 -0.3,-1.2 -0.2,-0.3 -0.6,-0.4 -1,-0.4 -0.3,0 -0.6,0.1 -0.9,0.2 -0.2,0.1 -0.4,0.4 -0.5,0.7 v 0 c -0.1,-0.3 -0.2,-0.5 -0.4,-0.7 -0.2,-0.2 -0.5,-0.2 -0.8,-0.2 -0.3,0 -0.6,0.1 -0.8,0.2 -0.2,0.1 -0.4,0.3 -0.6,0.5 v 0 -0.6 h -1.4 v 5.5 z m -3.8,-3.6 c 0,-0.2 0,-0.4 0.1,-0.6 0.1,-0.2 0.1,-0.3 0.2,-0.4 0.1,-0.1 0.2,-0.1 0.4,-0.1 0.3,0 0.5,0.2 0.6,0.5 0.1,0.3 0.2,0.8 0.2,1.5 0,0.7 -0.1,1.2 -0.2,1.5 -0.1,0.3 -0.3,0.4 -0.6,0.4 -0.2,0 -0.3,0 -0.4,-0.1 -0.1,-0.1 -0.2,-0.2 -0.2,-0.4 -0.1,-0.2 -0.1,-0.4 -0.1,-0.6 0,-0.2 0,-0.5 0,-0.8 0,-0.3 0,-0.6 0,-0.9 m -1.3,2.1 c 0.1,0.4 0.2,0.7 0.3,0.9 0.2,0.2 0.4,0.4 0.7,0.5 0.3,0.1 0.6,0.2 1.1,0.2 0.4,0 0.7,-0.1 1,-0.2 0.3,-0.1 0.5,-0.3 0.7,-0.6 0.2,-0.2 0.3,-0.5 0.4,-0.9 0.1,-0.4 0.1,-0.8 0.1,-1.2 0,-0.5 0,-0.9 -0.1,-1.3 -0.1,-0.4 -0.2,-0.7 -0.3,-0.9 -0.2,-0.2 -0.4,-0.4 -0.7,-0.5 -0.3,-0.1 -0.6,-0.2 -1.1,-0.2 -0.4,0 -0.7,0.1 -1,0.2 -0.3,0.1 -0.5,0.3 -0.7,0.6 -0.2,0.2 -0.3,0.5 -0.4,0.9 -0.1,0.4 -0.1,0.8 -0.1,1.2 0,0.5 0,0.9 0.1,1.3 m -0.9,-3.4 c 0,-0.3 0,-0.5 -0.1,-0.9 0,-0.3 -0.1,-0.6 -0.3,-0.8 -0.2,-0.3 -0.4,-0.5 -0.7,-0.7 -0.3,-0.2 -0.7,-0.3 -1.2,-0.3 -0.6,0 -1,0.1 -1.3,0.3 -0.3,0.2 -0.6,0.4 -0.8,0.8 -0.2,0.3 -0.3,0.7 -0.3,1.2 -0.1,0.5 -0.1,1 -0.1,1.5 0,0.6 0,1.1 0.1,1.5 0.1,0.5 0.2,0.9 0.3,1.2 0.2,0.3 0.4,0.6 0.8,0.8 0.3,0.2 0.8,0.3 1.3,0.3 0.5,0 0.9,-0.1 1.2,-0.2 0.3,-0.2 0.5,-0.4 0.7,-0.6 0.2,-0.3 0.3,-0.6 0.3,-0.9 0.1,-0.4 0.1,-0.7 0.1,-1.1 H 120 c 0,0.4 0,0.7 -0.1,1 0,0.2 -0.1,0.4 -0.2,0.6 -0.1,0.1 -0.2,0.2 -0.3,0.3 -0.1,0 -0.2,0.1 -0.4,0.1 -0.2,0 -0.3,0 -0.4,-0.1 -0.1,-0.1 -0.2,-0.2 -0.3,-0.4 -0.1,-0.2 -0.1,-0.5 -0.2,-0.8 -0.1,-0.3 -0.1,-0.8 -0.1,-1.3 0,-0.5 0,-1 0,-1.3 0,-0.4 0.1,-0.6 0.1,-0.9 0.1,-0.2 0.2,-0.4 0.3,-0.5 0.1,-0.1 0.3,-0.1 0.5,-0.1 0.3,0 0.6,0.1 0.7,0.4 0.1,0.2 0.2,0.6 0.2,1.2 h 1.6 z"
     id="path38" /><path
     fill="#03559f"
     d="m 154.4,63.2 h 1.4 v -3.3 c 0,-0.2 0,-0.3 0.1,-0.5 0.1,-0.1 0.1,-0.2 0.2,-0.3 0.1,-0.1 0.2,-0.1 0.3,-0.2 0.1,0 0.2,-0.1 0.4,-0.1 0.1,0 0.1,0 0.2,0 0.1,0 0.1,0 0.2,0 v -1.4 c 0,0 -0.1,0 -0.1,0 0,0 -0.1,0 -0.1,0 -0.3,0 -0.5,0.1 -0.7,0.2 -0.2,0.2 -0.4,0.4 -0.5,0.6 v 0 -0.7 h -1.4 z m -3.8,-3.6 c 0,-0.2 0,-0.4 0.1,-0.6 0.1,-0.2 0.1,-0.3 0.2,-0.4 0.1,-0.1 0.2,-0.1 0.4,-0.1 0.3,0 0.5,0.2 0.6,0.5 0.1,0.3 0.2,0.8 0.2,1.5 0,0.7 -0.1,1.2 -0.2,1.5 -0.1,0.3 -0.3,0.4 -0.6,0.4 -0.2,0 -0.3,0 -0.4,-0.1 -0.1,-0.1 -0.2,-0.2 -0.2,-0.4 -0.1,-0.2 -0.1,-0.4 -0.1,-0.6 0,-0.2 0,-0.5 0,-0.8 0,-0.3 0,-0.6 0,-0.9 m -1.3,2.1 c 0.1,0.4 0.2,0.7 0.3,0.9 0.2,0.2 0.4,0.4 0.7,0.5 0.3,0.1 0.6,0.2 1.1,0.2 0.4,0 0.7,-0.1 1,-0.2 0.3,-0.1 0.5,-0.3 0.7,-0.6 0.2,-0.2 0.3,-0.5 0.4,-0.9 0.1,-0.4 0.1,-0.8 0.1,-1.2 0,-0.5 0,-0.9 -0.1,-1.3 -0.1,-0.4 -0.2,-0.7 -0.3,-0.9 -0.2,-0.2 -0.4,-0.4 -0.7,-0.5 -0.3,-0.1 -0.6,-0.2 -1.1,-0.2 -0.4,0 -0.7,0.1 -1,0.2 -0.3,0.1 -0.5,0.3 -0.7,0.6 -0.2,0.2 -0.3,0.5 -0.4,0.9 -0.1,0.4 -0.1,0.8 -0.1,1.2 0,0.5 0,0.9 0.1,1.3 m -2.7,1.5 h 1.4 v -4.5 h 0.8 v -1 H 148 v -0.5 c 0,-0.2 0,-0.3 0.1,-0.3 0.1,-0.1 0.2,-0.1 0.4,-0.1 h 0.1 c 0.1,0 0.1,0 0.1,0 v -1 c -0.3,0 -0.5,0 -0.8,0 -0.2,0 -0.4,0 -0.6,0.1 -0.2,0 -0.3,0.1 -0.5,0.2 -0.1,0.1 -0.2,0.2 -0.3,0.4 -0.1,0.2 -0.1,0.4 -0.1,0.6 v 0.6 h -0.7 v 1 h 0.7 v 4.5 z m -6.2,0 h 1.4 v -3.3 c 0,-0.2 0,-0.3 0.1,-0.5 0.1,-0.1 0.1,-0.2 0.2,-0.3 0.1,-0.1 0.2,-0.1 0.3,-0.2 0.1,0 0.2,-0.1 0.4,-0.1 0.1,0 0.1,0 0.2,0 0.1,0 0.1,0 0.2,0 v -1.4 c 0,0 -0.1,0 -0.1,0 0,0 -0.1,0 -0.1,0 -0.3,0 -0.5,0.1 -0.7,0.2 -0.2,0.2 -0.4,0.4 -0.5,0.6 v 0 -0.7 h -1.4 z m -3.6,-3.4 v -0.2 c 0,-0.1 0,-0.3 0,-0.4 0,-0.1 0.1,-0.2 0.1,-0.4 0.1,-0.1 0.1,-0.2 0.2,-0.3 0.1,-0.1 0.2,-0.1 0.4,-0.1 0.1,0 0.3,0 0.4,0.1 0.1,0.1 0.2,0.1 0.2,0.3 0.1,0.1 0.1,0.2 0.1,0.4 0,0.2 0,0.3 0,0.6 z m 2.8,0.8 v -0.3 c 0,-0.4 0,-0.8 -0.1,-1.2 -0.1,-0.3 -0.2,-0.6 -0.3,-0.9 -0.1,-0.2 -0.4,-0.4 -0.6,-0.6 -0.3,-0.1 -0.6,-0.2 -1,-0.2 -0.5,0 -0.9,0.1 -1.1,0.2 -0.3,0.2 -0.5,0.4 -0.7,0.6 -0.2,0.3 -0.3,0.6 -0.3,0.9 -0.1,0.3 -0.1,0.7 -0.1,1.1 0,0.3 0,0.7 0,1 0,0.4 0.1,0.7 0.3,1 0.1,0.3 0.3,0.5 0.6,0.7 0.3,0.2 0.7,0.3 1.2,0.3 0.7,0 1.2,-0.2 1.5,-0.5 0.3,-0.3 0.5,-0.8 0.5,-1.5 h -1.3 c 0,0.3 -0.1,0.6 -0.2,0.8 -0.1,0.2 -0.3,0.3 -0.5,0.3 -0.1,0 -0.2,0 -0.3,-0.1 -0.1,-0.1 -0.2,-0.2 -0.2,-0.3 -0.1,-0.1 -0.1,-0.3 -0.1,-0.4 0,-0.2 0,-0.3 0,-0.5 v -0.4 z m -6.9,-2.9 H 132 v 1 h 0.7 v 3.2 c 0,0.3 0,0.5 0.1,0.7 0,0.2 0.1,0.3 0.2,0.4 0.1,0.1 0.2,0.2 0.4,0.2 0.2,0 0.4,0.1 0.7,0.1 0.2,0 0.3,0 0.5,0 0.1,0 0.3,0 0.5,0 v -1 c 0,0 -0.1,0 -0.2,0 -0.1,0 -0.1,0 -0.2,0 -0.2,0 -0.3,0 -0.4,-0.1 -0.1,-0.1 -0.1,-0.2 -0.1,-0.5 v -3 h 0.8 v -1 h -0.8 v -1.6 h -1.4 v 1.6 z m -5.5,5.5 h 1.4 v -3.7 c 0,-0.6 0.2,-0.9 0.7,-0.9 0.2,0 0.4,0.1 0.5,0.2 0.1,0.1 0.1,0.3 0.1,0.6 v 3.8 h 1.4 v -4.1 c 0,-0.6 -0.1,-1 -0.4,-1.2 -0.2,-0.2 -0.6,-0.4 -1,-0.4 -0.3,0 -0.6,0.1 -0.8,0.2 -0.2,0.1 -0.4,0.3 -0.6,0.6 v 0 -0.6 h -1.3 z m -3.6,-3.4 v -0.2 c 0,-0.1 0,-0.3 0,-0.4 0,-0.1 0.1,-0.2 0.1,-0.4 0.1,-0.1 0.1,-0.2 0.2,-0.3 0.1,-0.1 0.2,-0.1 0.4,-0.1 0.2,0 0.3,0 0.4,0.1 0.1,0.1 0.2,0.1 0.2,0.3 0.1,0.1 0.1,0.2 0.1,0.4 0,0.2 0,0.3 0,0.6 z m 2.8,0.8 v -0.3 c 0,-0.4 0,-0.8 -0.1,-1.2 -0.1,-0.3 -0.2,-0.6 -0.3,-0.9 -0.2,-0.2 -0.4,-0.4 -0.6,-0.6 -0.3,-0.1 -0.6,-0.2 -1,-0.2 -0.5,0 -0.9,0.1 -1.1,0.2 -0.3,0.2 -0.5,0.4 -0.7,0.6 -0.2,0.3 -0.3,0.6 -0.3,0.9 -0.1,0.3 -0.1,0.7 -0.1,1.1 0,0.3 0,0.7 0,1 0,0.4 0.1,0.7 0.3,1 0.1,0.3 0.3,0.5 0.6,0.7 0.3,0.2 0.7,0.3 1.2,0.3 0.7,0 1.2,-0.2 1.5,-0.5 0.3,-0.3 0.5,-0.8 0.5,-1.5 H 125 c 0,0.3 -0.1,0.6 -0.2,0.8 -0.1,0.2 -0.3,0.3 -0.5,0.3 -0.1,0 -0.2,0 -0.3,-0.1 -0.1,-0.1 -0.2,-0.2 -0.2,-0.3 -0.1,-0.1 -0.1,-0.3 -0.1,-0.4 0,-0.2 0,-0.3 0,-0.5 v -0.4 z m -5,-2.3 c 0,-0.3 0,-0.5 -0.1,-0.9 0,-0.3 -0.1,-0.6 -0.3,-0.8 -0.2,-0.3 -0.4,-0.5 -0.7,-0.6 -0.3,-0.2 -0.7,-0.3 -1.2,-0.3 -0.6,0 -1,0.1 -1.3,0.3 -0.3,0.2 -0.6,0.4 -0.8,0.8 -0.2,0.3 -0.3,0.7 -0.3,1.2 -0.1,0.5 -0.1,1 -0.1,1.5 0,0.6 0,1.1 0.1,1.5 0.1,0.5 0.2,0.9 0.3,1.2 0.2,0.3 0.4,0.6 0.8,0.8 0.3,0.2 0.8,0.3 1.3,0.3 0.5,0 0.9,-0.1 1.2,-0.2 0.3,-0.2 0.5,-0.4 0.7,-0.6 0.2,-0.3 0.3,-0.6 0.3,-0.9 0.1,-0.4 0.1,-0.7 0.1,-1.1 H 120 c 0,0.4 0,0.7 -0.1,1 0,0.2 -0.1,0.4 -0.2,0.6 -0.1,0.2 -0.2,0.2 -0.3,0.3 -0.1,0 -0.2,0.1 -0.4,0.1 -0.2,0 -0.3,0 -0.4,-0.1 -0.1,-0.1 -0.2,-0.2 -0.3,-0.4 -0.1,-0.2 -0.1,-0.5 -0.2,-0.8 -0.1,-0.3 -0.1,-0.8 -0.1,-1.3 0,-0.5 0,-1 0,-1.3 0,-0.4 0.1,-0.6 0.1,-0.9 0.1,-0.2 0.2,-0.4 0.3,-0.5 0.1,-0.1 0.3,-0.1 0.5,-0.1 0.3,0 0.6,0.1 0.7,0.4 0.1,0.2 0.2,0.6 0.2,1.2 h 1.6 z"
     id="path40" /><path
     fill="#bdce0a"
     d="m 89.5,77 v 1.2 c 0,2.8 0.7,4.9 2.2,6.4 1.5,1.5 3.9,2.3 7.3,2.3 3.3,0 5.8,-0.7 7.7,-2.2 1.8,-1.5 2.8,-3.8 2.8,-7 0,-0.9 -0.1,-1.8 -0.3,-2.5 -0.2,-0.7 -0.5,-1.4 -0.9,-2.1 -0.4,-0.6 -1,-1.2 -1.8,-1.8 -0.7,-0.5 -1.7,-1.1 -2.8,-1.6 l -4.7,-2 c -1.3,-0.5 -2.1,-1.1 -2.5,-1.7 -0.4,-0.6 -0.6,-1.4 -0.6,-2.3 0,-0.4 0,-0.9 0.1,-1.3 0.1,-0.4 0.3,-0.8 0.5,-1.1 0.3,-0.3 0.6,-0.6 1.1,-0.8 0.4,-0.2 1,-0.3 1.7,-0.3 1.2,0 2,0.4 2.5,1.2 0.5,0.8 0.8,1.9 0.8,3.3 h 5.8 v -0.8 c 0,-1.4 -0.2,-2.7 -0.7,-3.7 -0.5,-1 -1.1,-1.9 -1.9,-2.5 -0.8,-0.7 -1.8,-1.1 -2.9,-1.4 -1.1,-0.3 -2.4,-0.4 -3.7,-0.4 -2.9,0 -5.2,0.7 -6.8,2.2 -1.7,1.5 -2.5,3.7 -2.5,6.6 0,1.2 0.2,2.3 0.5,3.3 0.3,0.9 0.8,1.8 1.4,2.5 0.7,0.7 1.5,1.3 2.5,1.9 1,0.5 2.1,1 3.5,1.5 1,0.3 1.9,0.7 2.5,1 0.7,0.3 1.2,0.7 1.7,1.1 0.4,0.4 0.7,0.8 0.9,1.3 0.2,0.5 0.3,1.1 0.3,1.7 0,1.3 -0.4,2.2 -1.1,2.8 -0.7,0.6 -1.6,0.9 -2.5,0.9 -0.8,0 -1.5,-0.1 -2,-0.3 -0.5,-0.2 -0.9,-0.5 -1.2,-0.9 -0.3,-0.4 -0.5,-0.9 -0.6,-1.4 -0.1,-0.6 -0.2,-1.2 -0.2,-1.9 V 77 Z"
     id="path42" /><path
     fill="#016266"
     d="m 44.6,66.5 c 0,-1.1 -0.1,-2.3 -0.2,-3.5 -0.2,-1.2 -0.5,-2.4 -1.2,-3.5 -0.6,-1.1 -1.5,-2 -2.8,-2.7 -1.2,-0.7 -2.9,-1 -5.1,-1 -2.3,0 -4.1,0.4 -5.4,1.2 -1.3,0.8 -2.4,1.8 -3.1,3.2 -0.7,1.4 -1.2,3 -1.4,4.9 -0.2,1.9 -0.3,4 -0.3,6.3 0,2.3 0.1,4.4 0.3,6.3 0.2,1.9 0.7,3.6 1.4,4.9 0.7,1.4 1.7,2.4 3.1,3.2 1.3,0.8 3.2,1.2 5.4,1.2 2,0 3.6,-0.3 4.8,-1 1.2,-0.6 2.2,-1.5 2.9,-2.6 0.7,-1.1 1.2,-2.4 1.4,-3.8 0.3,-1.5 0.4,-3 0.4,-4.6 h -6 c 0,1.6 -0.1,2.9 -0.3,3.9 -0.2,1 -0.5,1.8 -0.8,2.3 -0.3,0.5 -0.7,0.9 -1.2,1.1 -0.5,0.2 -1,0.3 -1.5,0.3 -0.6,0 -1.2,-0.1 -1.7,-0.4 -0.5,-0.3 -0.9,-0.8 -1.2,-1.6 -0.3,-0.8 -0.6,-1.9 -0.7,-3.3 -0.2,-1.4 -0.2,-3.2 -0.2,-5.5 0,-2.1 0.1,-3.9 0.2,-5.4 0.1,-1.5 0.3,-2.7 0.6,-3.6 0.3,-0.9 0.7,-1.6 1.2,-2 0.5,-0.4 1.1,-0.6 1.9,-0.6 1.4,0 2.3,0.5 2.8,1.5 0.5,1 0.8,2.6 0.8,4.8 z"
     id="path44" /><path
     fill="#0098a1"
     d="m 67.2,66.5 c 0,-1.1 -0.1,-2.3 -0.2,-3.5 -0.2,-1.2 -0.5,-2.4 -1.2,-3.5 -0.6,-1.1 -1.5,-2 -2.8,-2.7 -1.2,-0.7 -2.9,-1 -5.1,-1 -2.3,0 -4.1,0.4 -5.4,1.2 -1.3,0.8 -2.4,1.8 -3.1,3.2 -0.7,1.4 -1.2,3 -1.4,4.9 -0.2,1.9 -0.3,4 -0.3,6.3 0,2.3 0.1,4.4 0.3,6.3 0.2,1.9 0.7,3.6 1.4,4.9 0.7,1.4 1.7,2.4 3.1,3.2 1.3,0.8 3.2,1.2 5.4,1.2 2,0 3.6,-0.3 4.8,-1 1.2,-0.6 2.2,-1.5 2.9,-2.6 0.7,-1.1 1.2,-2.4 1.4,-3.8 0.3,-1.5 0.4,-3 0.4,-4.6 h -6 c 0,1.6 -0.1,2.9 -0.3,3.9 -0.2,1 -0.5,1.8 -0.8,2.3 -0.3,0.5 -0.7,0.9 -1.2,1.1 -0.5,0.2 -1,0.3 -1.5,0.3 -0.6,0 -1.2,-0.1 -1.7,-0.4 -0.5,-0.3 -0.9,-0.8 -1.2,-1.6 -0.3,-0.8 -0.6,-1.9 -0.7,-3.3 -0.2,-1.4 -0.2,-3.2 -0.2,-5.5 0,-2.1 0.1,-3.9 0.2,-5.4 0.1,-1.5 0.3,-2.7 0.6,-3.6 0.3,-0.9 0.7,-1.6 1.2,-2 0.5,-0.4 1.1,-0.6 1.9,-0.6 1.4,0 2.3,0.5 2.8,1.5 0.5,1 0.8,2.6 0.8,4.8 z"
     id="path46" /><polygon
     fill="#58ac32"
     points="87.4,86.4 87.4,81.4 76.7,81.4 76.7,56.4 70.7,56.4 70.7,86.4 "
     id="polygon48" /></g>
	
	
	
	
	
	
	
	
	
	
	
	
	
	
	
	
	
	
	
	
	
	
	
	
</g>
</svg>
