<?xml version="1.0" encoding="UTF-8" standalone="no"?>
<svg
   width="72mm"
   height="20mm"
   version="1.1"
   viewBox="0 0 204.09431 56.693125"
   id="svg66"
   sodipodi:docname="IAMB.svg"
   inkscape:version="1.2.2 (732a01da63, 2022-12-09)"
   xmlns:inkscape="http://www.inkscape.org/namespaces/inkscape"
   xmlns:sodipodi="http://sodipodi.sourceforge.net/DTD/sodipodi-0.dtd"
   xmlns="http://www.w3.org/2000/svg"
   xmlns:svg="http://www.w3.org/2000/svg">
  <defs
     id="defs70" />
  <sodipodi:namedview
     id="namedview68"
     pagecolor="#ffffff"
     bordercolor="#000000"
     borderopacity="0.25"
     inkscape:showpageshadow="2"
     inkscape:pageopacity="0.0"
     inkscape:pagecheckerboard="0"
     inkscape:deskcolor="#d1d1d1"
     inkscape:document-units="mm"
     showgrid="false"
     inkscape:zoom="2.3068957"
     inkscape:cx="237.33193"
     inkscape:cy="60.687617"
     inkscape:window-width="2560"
     inkscape:window-height="1009"
     inkscape:window-x="-8"
     inkscape:window-y="-8"
     inkscape:window-maximized="1"
     inkscape:current-layer="svg66" />
  <!-- Generator: Adobe Illustrator 29.5.1, SVG Export Plug-In . SVG Version: 2.1.0 Build 141)  -->
  <g
     id="Schutzraum">
    <rect
       x="0"
       width="392.08499"
       height="90.709"
       fill="none"
       id="rect2"
       y="0" />
    <rect
       x="0"
       width="392.08499"
       height="90.709"
       fill="none"
       id="rect4"
       y="0" />
    <rect
       x="0"
       width="392.08499"
       height="90.709"
       fill="none"
       id="rect6"
       y="0" />
    <rect
       x="0"
       width="392.08499"
       height="90.709"
       fill="none"
       id="rect8"
       y="0" />
    <rect
       x="0"
       width="392.08499"
       height="90.709"
       fill="none"
       id="rect10"
       y="0" />
    <rect
       x="0"
       width="392.08499"
       height="90.709"
       fill="none"
       id="rect12"
       y="0" />
  </g>
  <g
     id="Logo"
     transform="translate(1.3004538,-24.383508)">
    <path
       d="m 90.581,68.032 h 19.565 c 2.011,0 3.672,-0.3 4.985,-0.901 1.313,-0.6 2.353,-1.347 3.121,-2.241 0.768,-0.894 1.305,-1.85 1.613,-2.87 0.307,-1.019 0.461,-1.947 0.461,-2.785 0,-1.258 -0.175,-2.318 -0.524,-3.185 -0.349,-0.865 -0.796,-1.585 -1.34,-2.157 -0.545,-0.571 -1.131,-1.02 -1.76,-1.341 -0.628,-0.32 -1.236,-0.566 -1.822,-0.732 0.391,-0.195 0.823,-0.434 1.298,-0.712 0.475,-0.279 0.915,-0.65 1.32,-1.11 0.405,-0.461 0.747,-1.048 1.027,-1.76 0.278,-0.712 0.418,-1.599 0.418,-2.66 0,-0.949 -0.125,-1.871 -0.377,-2.765 -0.251,-0.894 -0.705,-1.69 -1.361,-2.388 -0.657,-0.698 -1.536,-1.257 -2.639,-1.676 -1.104,-0.419 -2.508,-0.628 -4.211,-0.628 H 90.581 v 29.912 z m 6.284,-25.22 h 10.641 c 1.844,0 3.163,0.293 3.959,0.88 0.796,0.586 1.194,1.508 1.194,2.765 0,0.837 -0.132,1.508 -0.398,2.01 -0.265,0.503 -0.593,0.887 -0.984,1.152 -0.392,0.266 -0.824,0.439 -1.299,0.523 -0.475,0.084 -0.936,0.126 -1.382,0.126 H 96.865 v -7.457 z m 0,11.898 h 12.192 c 1.424,0 2.569,0.349 3.435,1.047 0.865,0.698 1.299,1.759 1.299,3.185 0,0.978 -0.161,1.753 -0.482,2.324 -0.322,0.573 -0.748,1.014 -1.278,1.32 -0.531,0.307 -1.138,0.51 -1.822,0.607 -0.685,0.098 -1.376,0.147 -2.074,0.147 H 96.865 Z M 45.863,68.032 h 7.048 L 64.022,46.98 64.069,68.032 H 71.44 L 83.3,46.98 83.323,68.032 h 5.949 V 38.12 H 81.488 L 69.713,59.13 69.674,38.12 H 62.356 Z M 30.474,55.925 35.669,43.314 40.78,55.925 Z M 18.702,68.032 h 6.786 l 3.101,-7.415 h 14.076 l 3.142,7.415 h 6.996 L 39.481,38.12 h -7.457 z m -4.528,0 h 5.781 V 45.828 h -5.781 z"
       fill="#00549f"
       id="path53" />
    <rect
       x="14.174"
       y="38.119999"
       width="5.7810001"
       height="4.6919999"
       fill="#a11035"
       id="rect55" />
    <g
       id="g63">
      <path
         d="m 175.544,69.792 h 0.56 c 0.32,0 0.585,-0.023 0.795,-0.07 0.21,-0.047 0.39,-0.144 0.54,-0.295 0.15,-0.151 0.3,-0.417 0.45,-0.8 0.15,-0.383 0.245,-0.702 0.285,-0.955 l 1.3,-5.021 h -1.38 l -0.7,3.721 h -0.02 l -0.8,-3.721 h -1.44 l 1.51,5.381 c -0.02,0.239 -0.085,0.427 -0.195,0.56 -0.11,0.133 -0.291,0.2 -0.545,0.2 -0.12,0 -0.24,-0.01 -0.36,-0.03 z m -2.367,-7.141 v 0.601 h -0.02 c -0.133,-0.28 -0.303,-0.474 -0.51,-0.58 -0.206,-0.107 -0.406,-0.16 -0.6,-0.16 -0.373,0 -0.671,0.083 -0.895,0.25 -0.223,0.167 -0.393,0.382 -0.51,0.646 -0.116,0.263 -0.193,0.558 -0.23,0.885 -0.036,0.327 -0.055,0.646 -0.055,0.96 0,0.979 0.139,1.678 0.415,2.095 0.277,0.417 0.689,0.625 1.235,0.625 0.22,0 0.432,-0.06 0.635,-0.18 0.204,-0.12 0.375,-0.28 0.515,-0.48 h 0.02 v 0.71 c 0,0.28 -0.056,0.513 -0.17,0.695 -0.113,0.183 -0.31,0.275 -0.59,0.275 -0.086,0 -0.168,-0.014 -0.245,-0.04 -0.076,-0.027 -0.148,-0.064 -0.215,-0.11 -0.14,-0.1 -0.21,-0.237 -0.21,-0.41 h -1.32 c 0,0.46 0.159,0.815 0.475,1.065 0.317,0.25 0.769,0.375 1.355,0.375 0.807,0 1.382,-0.172 1.725,-0.516 0.344,-0.343 0.515,-0.875 0.515,-1.595 v -5.11 h -1.32 z m -1.415,1.946 c 0.017,-0.25 0.052,-0.45 0.105,-0.6 0.054,-0.15 0.127,-0.258 0.22,-0.325 0.094,-0.067 0.217,-0.1 0.37,-0.1 0.274,0 0.462,0.137 0.565,0.409 0.104,0.273 0.155,0.737 0.155,1.391 0,0.227 -0.011,0.435 -0.035,0.625 -0.023,0.189 -0.063,0.352 -0.12,0.484 -0.056,0.134 -0.133,0.238 -0.23,0.315 -0.096,0.077 -0.218,0.115 -0.365,0.115 -0.146,0 -0.265,-0.038 -0.355,-0.115 -0.09,-0.077 -0.16,-0.18 -0.21,-0.311 -0.05,-0.13 -0.083,-0.277 -0.1,-0.444 -0.016,-0.167 -0.025,-0.343 -0.025,-0.53 0,-0.36 0.009,-0.665 0.025,-0.915 m -4.934,-0.014 c 0.014,-0.233 0.045,-0.433 0.095,-0.601 0.05,-0.167 0.124,-0.297 0.22,-0.39 0.097,-0.093 0.232,-0.14 0.405,-0.14 0.28,0 0.474,0.146 0.58,0.439 0.107,0.293 0.16,0.777 0.16,1.45 0,0.673 -0.053,1.157 -0.16,1.45 -0.106,0.293 -0.3,0.439 -0.58,0.439 -0.173,0 -0.308,-0.047 -0.405,-0.14 -0.096,-0.093 -0.17,-0.223 -0.22,-0.39 -0.05,-0.167 -0.081,-0.367 -0.095,-0.601 -0.013,-0.232 -0.02,-0.486 -0.02,-0.76 0,-0.274 0.007,-0.527 0.02,-0.76 m -1.301,2.004 c 0.067,0.353 0.18,0.649 0.34,0.89 0.16,0.24 0.377,0.418 0.65,0.535 0.274,0.117 0.617,0.172 1.03,0.165 0.394,0 0.725,-0.062 0.995,-0.186 0.27,-0.122 0.489,-0.303 0.655,-0.539 0.167,-0.237 0.287,-0.532 0.36,-0.886 0.074,-0.353 0.11,-0.76 0.11,-1.22 0,-0.467 -0.033,-0.878 -0.1,-1.235 -0.066,-0.356 -0.18,-0.654 -0.34,-0.895 -0.16,-0.24 -0.376,-0.418 -0.65,-0.535 -0.273,-0.117 -0.616,-0.172 -1.03,-0.165 -0.393,0 -0.725,0.062 -0.995,0.186 -0.27,0.122 -0.488,0.303 -0.655,0.539 -0.166,0.237 -0.286,0.532 -0.36,0.886 -0.073,0.353 -0.11,0.76 -0.11,1.22 0,0.473 0.034,0.887 0.1,1.24 m -2.328,1.45 h 1.38 v -7.141 h -1.38 z m -3.678,-3.45 c 0.013,-0.233 0.045,-0.433 0.095,-0.601 0.05,-0.167 0.123,-0.297 0.22,-0.39 0.096,-0.093 0.231,-0.14 0.405,-0.14 0.28,0 0.473,0.146 0.58,0.439 0.106,0.293 0.16,0.777 0.16,1.45 0,0.673 -0.054,1.157 -0.16,1.45 -0.107,0.293 -0.3,0.439 -0.58,0.439 -0.174,0 -0.309,-0.047 -0.405,-0.14 -0.097,-0.093 -0.17,-0.223 -0.22,-0.39 -0.05,-0.167 -0.082,-0.367 -0.095,-0.601 -0.014,-0.232 -0.02,-0.486 -0.02,-0.76 0,-0.274 0.006,-0.527 0.02,-0.76 m -1.3,2.004 c 0.066,0.353 0.18,0.649 0.34,0.89 0.16,0.24 0.376,0.418 0.65,0.535 0.273,0.117 0.616,0.172 1.03,0.165 0.393,0 0.725,-0.062 0.995,-0.186 0.27,-0.122 0.488,-0.303 0.655,-0.539 0.166,-0.237 0.286,-0.532 0.36,-0.886 0.073,-0.353 0.11,-0.76 0.11,-1.22 0,-0.467 -0.034,-0.878 -0.1,-1.235 -0.067,-0.356 -0.18,-0.654 -0.34,-0.895 -0.16,-0.24 -0.377,-0.418 -0.65,-0.535 -0.274,-0.117 -0.617,-0.172 -1.03,-0.165 -0.394,0 -0.725,0.062 -0.995,0.186 -0.27,0.122 -0.489,0.303 -0.655,0.539 -0.167,0.237 -0.287,0.532 -0.36,0.886 -0.074,0.353 -0.11,0.76 -0.11,1.22 0,0.473 0.033,0.887 0.1,1.24 m -2.329,1.45 h 1.38 v -5.381 h -1.38 z m 0,-6.04 h 1.38 v -1.181 h -1.38 z m -3.575,2.025 c 0.09,-0.297 0.288,-0.444 0.595,-0.444 0.3,0 0.495,0.147 0.585,0.444 0.09,0.297 0.135,0.738 0.135,1.325 0,0.587 -0.045,1.028 -0.135,1.325 -0.09,0.297 -0.285,0.444 -0.585,0.444 -0.307,0 -0.505,-0.147 -0.595,-0.444 -0.09,-0.297 -0.135,-0.738 -0.135,-1.325 0,-0.587 0.045,-1.028 0.135,-1.325 m -1.515,4.015 h 1.32 v -0.57 h 0.02 c 0.153,0.253 0.325,0.435 0.515,0.545 0.19,0.11 0.425,0.165 0.705,0.165 0.566,0 0.983,-0.222 1.25,-0.665 0.266,-0.443 0.4,-1.165 0.4,-2.165 0,-1 -0.134,-1.722 -0.4,-2.165 -0.267,-0.443 -0.684,-0.665 -1.25,-0.665 -0.26,0 -0.482,0.053 -0.665,0.16 -0.184,0.106 -0.349,0.267 -0.495,0.479 h -0.02 v -2.26 h -1.38 z m -3.645,-3.45 c 0.013,-0.233 0.045,-0.433 0.095,-0.601 0.05,-0.168 0.123,-0.297 0.22,-0.39 0.096,-0.093 0.231,-0.14 0.405,-0.14 0.28,0 0.473,0.146 0.58,0.439 0.106,0.293 0.16,0.777 0.16,1.45 0,0.673 -0.054,1.157 -0.16,1.45 -0.107,0.293 -0.3,0.439 -0.58,0.439 -0.174,0 -0.309,-0.047 -0.405,-0.14 -0.097,-0.093 -0.17,-0.223 -0.22,-0.39 -0.05,-0.167 -0.082,-0.367 -0.095,-0.601 -0.014,-0.232 -0.02,-0.486 -0.02,-0.76 0,-0.274 0.006,-0.527 0.02,-0.76 m -1.3,2.004 c 0.066,0.353 0.18,0.649 0.34,0.89 0.16,0.24 0.376,0.418 0.65,0.535 0.273,0.117 0.616,0.172 1.03,0.165 0.393,0 0.725,-0.062 0.995,-0.186 0.27,-0.122 0.488,-0.303 0.655,-0.539 0.166,-0.237 0.286,-0.532 0.36,-0.886 0.073,-0.353 0.11,-0.76 0.11,-1.22 0,-0.467 -0.034,-0.878 -0.1,-1.235 -0.067,-0.356 -0.18,-0.654 -0.34,-0.895 -0.16,-0.24 -0.377,-0.418 -0.65,-0.535 -0.274,-0.117 -0.617,-0.172 -1.03,-0.165 -0.394,0 -0.725,0.062 -0.995,0.186 -0.27,0.122 -0.489,0.303 -0.655,0.539 -0.167,0.237 -0.287,0.532 -0.36,0.886 -0.074,0.353 -0.11,0.76 -0.11,1.22 0,0.473 0.033,0.887 0.1,1.24 m -3.384,1.45 h 1.38 v -3.23 c 0,-0.18 0.03,-0.332 0.09,-0.455 0.06,-0.123 0.14,-0.223 0.24,-0.3 0.1,-0.077 0.21,-0.132 0.33,-0.165 0.12,-0.033 0.24,-0.05 0.36,-0.05 0.073,0 0.145,0.002 0.215,0.005 0.07,0.003 0.141,0.008 0.215,0.015 v -1.319 c -0.04,-0.008 -0.082,-0.013 -0.125,-0.016 -0.044,-0.003 -0.085,-0.005 -0.125,-0.005 -0.287,0 -0.53,0.078 -0.73,0.235 -0.2,0.156 -0.37,0.364 -0.51,0.625 h -0.02 v -0.721 h -1.32 z m -0.79,-3.44 c 0,-0.64 -0.162,-1.147 -0.485,-1.519 -0.324,-0.373 -0.805,-0.561 -1.445,-0.561 -0.32,0 -0.614,0.043 -0.88,0.13 -0.267,0.087 -0.497,0.238 -0.69,0.455 -0.194,0.217 -0.344,0.507 -0.45,0.87 -0.107,0.363 -0.16,0.822 -0.16,1.375 0,0.54 0.043,0.992 0.13,1.356 0.086,0.362 0.215,0.652 0.385,0.869 0.17,0.218 0.383,0.372 0.64,0.466 0.256,0.093 0.558,0.14 0.905,0.14 0.733,0 1.258,-0.19 1.575,-0.57 0.316,-0.38 0.475,-0.923 0.475,-1.63 h -1.32 c 0,0.44 -0.054,0.76 -0.16,0.96 -0.107,0.2 -0.277,0.3 -0.51,0.3 -0.154,0 -0.279,-0.034 -0.375,-0.104 -0.097,-0.07 -0.172,-0.183 -0.225,-0.335 -0.054,-0.153 -0.09,-0.349 -0.11,-0.585 -0.02,-0.237 -0.03,-0.522 -0.03,-0.855 0,-0.307 0.01,-0.577 0.03,-0.81 0.02,-0.233 0.056,-0.425 0.11,-0.575 0.053,-0.15 0.131,-0.263 0.235,-0.34 0.103,-0.077 0.241,-0.115 0.415,-0.115 0.126,0 0.231,0.032 0.315,0.095 0.083,0.063 0.146,0.147 0.19,0.25 0.043,0.104 0.073,0.221 0.09,0.351 0.016,0.13 0.025,0.258 0.025,0.385 h 1.32 z m -6.33,3.44 h 1.38 v -5.381 h -1.38 z m 0,-6.04 h 1.38 v -1.181 h -1.38 z m -7.41,6.04 h 1.32 v -5.7 h 0.02 l 1.27,5.7 h 1.12 l 1.27,-5.7 h 0.02 v 5.7 h 1.32 v -7.141 h -2.13 l -1.03,5.04 h -0.02 l -1.02,-5.04 h -2.14 z"
         fill="#00549f"
         id="path57" />
      <path
         d="m 154.673,52.678 c 0.09,-0.297 0.285,-0.444 0.585,-0.444 0.306,0 0.505,0.147 0.595,0.444 0.09,0.298 0.135,0.738 0.135,1.325 0,0.587 -0.045,1.028 -0.135,1.325 -0.09,0.297 -0.289,0.445 -0.595,0.445 -0.3,0 -0.495,-0.149 -0.585,-0.445 -0.09,-0.297 -0.135,-0.738 -0.135,-1.325 0,-0.587 0.045,-1.027 0.135,-1.325 m 1.375,4.015 h 1.32 v -7.141 h -1.38 v 2.261 h -0.02 c -0.147,-0.213 -0.312,-0.373 -0.495,-0.48 -0.184,-0.106 -0.405,-0.16 -0.665,-0.16 -0.567,0 -0.984,0.223 -1.25,0.665 -0.267,0.443 -0.4,1.165 -0.4,2.165 0,1 0.133,1.723 0.4,2.165 0.266,0.443 0.683,0.665 1.25,0.665 0.28,0 0.515,-0.055 0.704,-0.165 0.19,-0.109 0.361,-0.292 0.515,-0.545 h 0.02 v 0.57 z m -6.285,-3.299 v -0.21 c 0,-0.127 0.011,-0.253 0.035,-0.381 0.023,-0.127 0.061,-0.241 0.115,-0.345 0.053,-0.102 0.125,-0.186 0.215,-0.25 0.09,-0.062 0.205,-0.095 0.345,-0.095 0.14,0 0.255,0.028 0.345,0.085 0.09,0.057 0.16,0.14 0.21,0.25 0.05,0.11 0.085,0.243 0.105,0.4 0.02,0.156 0.033,0.338 0.04,0.545 h -1.41 z m 2.731,0.819 v -0.31 c 0,-0.413 -0.027,-0.788 -0.08,-1.125 -0.054,-0.337 -0.154,-0.623 -0.3,-0.86 -0.147,-0.236 -0.349,-0.42 -0.605,-0.55 -0.257,-0.13 -0.585,-0.195 -0.985,-0.195 -0.467,0 -0.84,0.077 -1.12,0.23 -0.28,0.153 -0.495,0.36 -0.645,0.62 -0.15,0.26 -0.25,0.557 -0.3,0.89 -0.05,0.333 -0.075,0.68 -0.075,1.04 0,0.333 0.015,0.672 0.045,1.015 0.03,0.344 0.111,0.653 0.245,0.931 0.133,0.276 0.34,0.502 0.62,0.675 0.28,0.173 0.67,0.26 1.17,0.26 0.66,0 1.143,-0.168 1.45,-0.505 0.306,-0.337 0.473,-0.818 0.5,-1.445 h -1.24 c -0.04,0.341 -0.114,0.594 -0.22,0.761 -0.107,0.167 -0.277,0.25 -0.51,0.25 -0.127,0 -0.234,-0.035 -0.32,-0.105 -0.087,-0.07 -0.157,-0.163 -0.21,-0.28 -0.054,-0.116 -0.092,-0.25 -0.115,-0.399 -0.024,-0.15 -0.035,-0.306 -0.035,-0.465 v -0.431 h 2.73 z m -6.34,2.48 h 1.38 v -5.38 h -1.38 z m 0,-6.04 h 1.38 v -1.18 h -1.38 z m -2.408,6.04 h 1.38 v -7.141 h -1.38 z m -3.576,-4.015 c 0.09,-0.297 0.288,-0.444 0.595,-0.444 0.3,0 0.495,0.147 0.585,0.444 0.09,0.298 0.135,0.738 0.135,1.325 0,0.587 -0.045,1.028 -0.135,1.325 -0.09,0.297 -0.285,0.445 -0.585,0.445 -0.307,0 -0.505,-0.149 -0.595,-0.445 -0.09,-0.297 -0.135,-0.738 -0.135,-1.325 0,-0.587 0.045,-1.027 0.135,-1.325 m -1.515,5.775 h 1.38 v -2.26 h 0.02 c 0.147,0.213 0.312,0.373 0.495,0.48 0.183,0.107 0.405,0.16 0.665,0.16 0.567,0 0.983,-0.222 1.25,-0.665 0.267,-0.442 0.4,-1.165 0.4,-2.165 0,-1 -0.133,-1.722 -0.4,-2.165 -0.267,-0.442 -0.683,-0.665 -1.25,-0.665 -0.28,0 -0.515,0.056 -0.705,0.165 -0.19,0.11 -0.362,0.292 -0.515,0.545 h -0.02 v -0.569 h -1.32 v 7.14 z m -3.544,-5.775 c 0.09,-0.297 0.288,-0.444 0.595,-0.444 0.3,0 0.495,0.147 0.585,0.444 0.09,0.298 0.135,0.738 0.135,1.325 0,0.587 -0.045,1.028 -0.135,1.325 -0.09,0.297 -0.285,0.445 -0.585,0.445 -0.307,0 -0.505,-0.149 -0.595,-0.445 -0.09,-0.297 -0.135,-0.738 -0.135,-1.325 0,-0.587 0.045,-1.027 0.135,-1.325 m -1.515,5.775 h 1.38 v -2.26 h 0.02 c 0.147,0.213 0.312,0.373 0.495,0.48 0.183,0.107 0.405,0.16 0.665,0.16 0.567,0 0.983,-0.222 1.25,-0.665 0.267,-0.442 0.4,-1.165 0.4,-2.165 0,-1 -0.133,-1.722 -0.4,-2.165 -0.267,-0.442 -0.683,-0.665 -1.25,-0.665 -0.28,0 -0.515,0.056 -0.705,0.165 -0.19,0.11 -0.362,0.292 -0.515,0.545 h -0.02 v -0.569 h -1.32 v 7.14 z m -6.183,-1.76 h 1.5 l 0.33,-1.51 h 1.9 l 0.33,1.51 h 1.5 l -1.89,-7.141 h -1.78 z m 2.771,-5.9 h 0.02 l 0.69,3.21 h -1.4 z"
         fill="#00549f"
         id="path59" />
      <path
         d="m 169.168,45.355 h 1.38 v -4.44 h 0.8 v -0.94 h -0.8 v -0.47 c 0,-0.154 0.04,-0.264 0.12,-0.33 0.08,-0.067 0.216,-0.1 0.41,-0.1 h 0.13 c 0.06,0 0.106,0.003 0.14,0.01 v -0.98 c -0.254,-0.02 -0.5,-0.03 -0.74,-0.03 -0.22,0 -0.42,0.021 -0.6,0.065 -0.18,0.043 -0.332,0.115 -0.455,0.215 -0.124,0.1 -0.219,0.233 -0.285,0.4 -0.067,0.166 -0.1,0.37 -0.1,0.61 v 0.61 h -0.7 v 0.94 h 0.7 z m -3.966,-3.45 c 0.013,-0.234 0.045,-0.434 0.095,-0.6 0.05,-0.167 0.123,-0.297 0.22,-0.39 0.096,-0.094 0.231,-0.14 0.405,-0.14 0.28,0 0.473,0.146 0.58,0.44 0.106,0.293 0.16,0.776 0.16,1.45 0,0.674 -0.054,1.156 -0.16,1.45 -0.107,0.293 -0.3,0.44 -0.58,0.44 -0.174,0 -0.309,-0.047 -0.405,-0.14 -0.097,-0.094 -0.17,-0.224 -0.22,-0.39 -0.05,-0.167 -0.082,-0.367 -0.095,-0.6 -0.014,-0.234 -0.02,-0.487 -0.02,-0.76 0,-0.273 0.006,-0.527 0.02,-0.76 m -1.3,2 c 0.066,0.353 0.18,0.65 0.34,0.89 0.16,0.24 0.376,0.418 0.65,0.535 0.273,0.116 0.616,0.171 1.03,0.165 0.393,0 0.725,-0.062 0.995,-0.185 0.27,-0.124 0.488,-0.304 0.655,-0.54 0.166,-0.237 0.286,-0.532 0.36,-0.885 0.073,-0.354 0.11,-0.76 0.11,-1.22 0,-0.467 -0.034,-0.879 -0.1,-1.235 -0.067,-0.357 -0.18,-0.655 -0.34,-0.895 -0.16,-0.24 -0.377,-0.419 -0.65,-0.535 -0.274,-0.117 -0.617,-0.172 -1.03,-0.165 -0.394,0 -0.725,0.061 -0.995,0.185 -0.27,0.123 -0.489,0.303 -0.655,0.54 -0.167,0.236 -0.287,0.531 -0.36,0.885 -0.074,0.353 -0.11,0.76 -0.11,1.22 0,0.473 0.033,0.886 0.1,1.24 m -5.77,-1.85 v -0.21 c 0,-0.127 0.012,-0.254 0.035,-0.38 0.023,-0.127 0.062,-0.242 0.115,-0.345 0.053,-0.104 0.125,-0.187 0.215,-0.25 0.09,-0.064 0.205,-0.095 0.345,-0.095 0.14,0 0.255,0.028 0.345,0.085 0.09,0.056 0.16,0.14 0.21,0.25 0.05,0.11 0.085,0.243 0.105,0.4 0.02,0.156 0.033,0.338 0.04,0.545 z m 2.73,0.82 v -0.31 c 0,-0.414 -0.027,-0.789 -0.08,-1.125 -0.053,-0.337 -0.153,-0.624 -0.3,-0.86 -0.147,-0.237 -0.348,-0.42 -0.605,-0.55 -0.257,-0.13 -0.585,-0.195 -0.985,-0.195 -0.467,0 -0.84,0.076 -1.12,0.23 -0.28,0.153 -0.495,0.36 -0.645,0.62 -0.15,0.26 -0.25,0.556 -0.3,0.89 -0.05,0.333 -0.075,0.68 -0.075,1.04 0,0.333 0.015,0.671 0.045,1.015 0.03,0.343 0.112,0.653 0.245,0.93 0.133,0.276 0.34,0.501 0.62,0.675 0.28,0.173 0.67,0.26 1.17,0.26 0.66,0 1.143,-0.169 1.45,-0.505 0.307,-0.337 0.473,-0.819 0.5,-1.445 h -1.24 c -0.04,0.34 -0.113,0.593 -0.22,0.76 -0.107,0.166 -0.277,0.25 -0.51,0.25 -0.127,0 -0.233,-0.035 -0.32,-0.105 -0.087,-0.07 -0.157,-0.164 -0.21,-0.28 -0.053,-0.117 -0.092,-0.25 -0.115,-0.4 -0.023,-0.15 -0.035,-0.305 -0.035,-0.465 v -0.43 z m -6.7,-2.9 h -0.7 v 0.94 h 0.7 v 3.08 c 0,0.273 0.017,0.5 0.05,0.68 0.033,0.18 0.095,0.325 0.185,0.435 0.09,0.11 0.218,0.188 0.385,0.235 0.167,0.046 0.387,0.07 0.66,0.07 0.16,0 0.312,-0.007 0.455,-0.02 0.143,-0.014 0.292,-0.027 0.445,-0.04 v -0.96 c -0.047,0.006 -0.097,0.011 -0.15,0.015 -0.053,0.003 -0.107,0.005 -0.16,0.005 -0.2,0 -0.332,-0.045 -0.395,-0.135 -0.063,-0.09 -0.095,-0.242 -0.095,-0.455 v -2.91 h 0.8 v -0.94 h -0.8 v -1.54 h -1.38 z m -2.636,5.38 h 1.32 v -5.38 h -1.38 v 3.57 c 0,0.593 -0.243,0.89 -0.73,0.89 -0.207,0 -0.357,-0.055 -0.45,-0.165 -0.093,-0.11 -0.14,-0.305 -0.14,-0.585 v -3.71 h -1.38 v 3.99 c 0,0.54 0.118,0.93 0.355,1.17 0.237,0.24 0.575,0.36 1.015,0.36 0.3,0 0.567,-0.062 0.8,-0.185 0.233,-0.124 0.423,-0.319 0.57,-0.585 h 0.02 z m -5.531,-5.38 h -0.7 v 0.94 h 0.7 v 3.08 c 0,0.273 0.017,0.5 0.05,0.68 0.033,0.18 0.095,0.325 0.185,0.435 0.09,0.11 0.218,0.188 0.385,0.235 0.167,0.046 0.387,0.07 0.66,0.07 0.16,0 0.312,-0.007 0.455,-0.02 0.143,-0.014 0.292,-0.027 0.445,-0.04 v -0.96 c -0.047,0.006 -0.097,0.011 -0.15,0.015 -0.053,0.003 -0.107,0.005 -0.16,0.005 -0.2,0 -0.332,-0.045 -0.395,-0.135 -0.063,-0.09 -0.095,-0.242 -0.095,-0.455 v -2.91 h 0.8 v -0.94 h -0.8 v -1.54 h -1.38 z m -2.722,5.38 h 1.38 v -5.38 h -1.38 z m 0,-6.04 h 1.38 v -1.18 h -1.38 z m -2.84,0.66 h -0.7 v 0.94 h 0.7 v 3.08 c 0,0.273 0.017,0.5 0.05,0.68 0.034,0.18 0.095,0.325 0.185,0.435 0.09,0.11 0.219,0.188 0.385,0.235 0.167,0.046 0.387,0.07 0.66,0.07 0.16,0 0.312,-0.007 0.455,-0.02 0.144,-0.014 0.292,-0.027 0.445,-0.04 v -0.96 c -0.046,0.006 -0.096,0.011 -0.15,0.015 -0.053,0.003 -0.106,0.005 -0.16,0.005 -0.2,0 -0.331,-0.045 -0.395,-0.135 -0.063,-0.09 -0.095,-0.242 -0.095,-0.455 v -2.91 h 0.8 v -0.94 h -0.8 v -1.54 h -1.38 z m -5.103,3.62 v 0.19 c 0,0.26 0.03,0.495 0.09,0.705 0.06,0.21 0.165,0.39 0.315,0.54 0.15,0.15 0.351,0.265 0.605,0.345 0.253,0.08 0.576,0.12 0.97,0.12 0.286,0 0.553,-0.035 0.8,-0.105 0.246,-0.07 0.458,-0.175 0.635,-0.315 0.176,-0.14 0.315,-0.317 0.415,-0.53 0.1,-0.214 0.15,-0.46 0.15,-0.74 0,-0.407 -0.09,-0.729 -0.27,-0.965 -0.18,-0.237 -0.487,-0.429 -0.92,-0.575 l -0.83,-0.28 c -0.234,-0.074 -0.392,-0.164 -0.475,-0.27 -0.084,-0.107 -0.125,-0.227 -0.125,-0.36 0,-0.194 0.065,-0.339 0.195,-0.435 0.13,-0.097 0.281,-0.145 0.455,-0.145 0.226,0 0.385,0.065 0.475,0.195 0.09,0.13 0.135,0.335 0.135,0.615 h 1.24 v -0.22 c 0,-0.487 -0.15,-0.864 -0.45,-1.13 -0.3,-0.267 -0.764,-0.4 -1.39,-0.4 -0.354,0 -0.655,0.043 -0.905,0.13 -0.25,0.086 -0.455,0.203 -0.615,0.35 -0.16,0.146 -0.277,0.318 -0.35,0.515 -0.074,0.196 -0.11,0.405 -0.11,0.625 0,0.38 0.096,0.691 0.29,0.935 0.193,0.243 0.48,0.431 0.86,0.565 l 0.97,0.35 c 0.133,0.053 0.25,0.125 0.35,0.215 0.1,0.09 0.15,0.221 0.15,0.395 0,0.213 -0.064,0.373 -0.19,0.48 -0.127,0.106 -0.297,0.16 -0.51,0.16 -0.234,0 -0.412,-0.072 -0.535,-0.215 -0.124,-0.144 -0.185,-0.332 -0.185,-0.565 v -0.18 z m -4.846,1.76 h 1.38 v -3.57 c 0,-0.594 0.243,-0.89 0.73,-0.89 0.206,0 0.356,0.055 0.45,0.165 0.093,0.11 0.14,0.305 0.14,0.585 v 3.71 h 1.38 v -3.99 c 0,-0.54 -0.119,-0.93 -0.355,-1.17 -0.237,-0.24 -0.575,-0.36 -1.015,-0.36 -0.3,0 -0.567,0.061 -0.8,0.185 -0.234,0.123 -0.424,0.318 -0.57,0.585 h -0.02 v -0.63 h -1.32 z m -1.06,-7.14 h -1.44 v 7.14 h 1.44 z"
         fill="#00549f"
         id="path61" />
    </g>
  </g>
</svg>
