<?xml version="1.0" encoding="utf-8"?>
<!-- Generator: Adobe Illustrator 27.5.0, SVG Export Plug-In . SVG Version: 6.00 Build 0)  -->
<svg version="1.1" id="Ebene_1" xmlns="http://www.w3.org/2000/svg" xmlns:xlink="http://www.w3.org/1999/xlink" x="0px" y="0px"
	 width="403.9px" height="110px" viewBox="0 0 403.9 110" enable-background="new 0 0 403.9 110" xml:space="preserve">
<g>
	<path fill="#8FBAE4" d="M316.9,86.2h4.4v-9.3h2.4c1.8,0,2.6,1,2.6,2.8l0.1,4.2c0,0.9,0.1,1.7,0.6,2.3h4.8V86c-0.8-0.4-1-1.6-1-4
		c-0.1-4.7-0.5-6.3-3.6-6.7v-0.1c2.5-0.5,3.7-2.5,3.7-5.4c0-3.8-2.2-5.7-5.9-5.7h-8.2V86.2z M321.3,67.4h2.1c2,0,3.1,1,3.1,3.1
		c0,2.4-1.2,3.3-3.3,3.3h-1.9V67.4z"/>
	<path fill="#8FBAE4" d="M251.4,64.2v15.4c0,5.9,3.4,7.1,7,7.1c3.6,0,7-1.5,7-7.1V64.2H261v15.4c0,2.2-0.5,3.8-2.6,3.8
		c-2.1,0-2.6-1.6-2.6-3.8V64.2H251.4z"/>
	<polygon fill="#8FBAE4" points="266.5,64.2 266.5,86.2 270.6,86.2 270.6,70.8 270.7,70.8 276.1,86.2 281.2,86.2 281.2,64.2 
		277.1,64.2 277.1,79.2 277,79.2 271.7,64.2 	"/>
	<rect x="282.3" y="64.2" fill="#8FBAE4" width="4.4" height="22"/>
	<polygon fill="#8FBAE4" points="287.1,64.2 292.1,86.2 297.8,86.2 302.9,64.2 298.3,64.2 295,80.5 294.9,80.5 291.8,64.2 	"/>
	<polygon fill="#8FBAE4" points="303.3,64.2 303.3,86.2 315.9,86.2 315.9,82.6 307.7,82.6 307.7,76.6 315.1,76.6 315.1,73 307.7,73 
		307.7,67.8 315.6,67.8 315.6,64.2 	"/>
	<path fill="#8FBAE4" d="M331.3,79.3v0.9c0,4.1,2,6.4,7,6.4c4.8,0,7.7-2.1,7.7-6.8c0-2.7-0.9-4.4-4.2-5.8l-3.4-1.5
		c-1.9-0.8-2.3-1.6-2.3-3c0-1.3,0.5-2.6,2.5-2.6c1.7,0,2.4,1.2,2.4,3.3h4.3v-0.6c0-4.2-2.9-5.9-6.8-5.9c-4.2,0-6.8,2.2-6.8,6.5
		c0,3.7,1.8,5.3,5.8,6.7c2.9,1,4,1.8,4,3.8c0,1.9-1.3,2.7-2.7,2.7c-2.3,0-2.9-1.3-2.9-3.4v-0.6H331.3z"/>
	<rect x="346.6" y="64.2" fill="#8FBAE4" width="4.4" height="22"/>
	<polygon fill="#8FBAE4" points="374.1,64.2 371,72.7 371,72.7 368.1,64.2 351.6,64.2 351.6,67.8 356.4,67.8 356.4,86.2 360.9,86.2 
		360.9,67.8 364.6,67.8 368.8,77.5 368.8,86.2 373.2,86.2 373.2,77.5 378.9,64.2 	"/>
	<path fill="#03559F" d="M212.3,62.1H212h-7.1v-2.5V40.2V40h7.1h0h5c3.3,0,6.1,2.1,7,4.9c0.9,2.6,0.1,5.4-1.8,7.4
		c0.3,0.7,0.5,1.2,0.7,1.9c0.5,1.2,1,2.5,1.6,3.7l1.8,4.2h0h-7.4c0,0-0.1-0.2-0.1-0.3c-0.3-0.7-0.6-1.4-0.9-2l-1.8-4.3
		c-0.7-1.7-1.4-3.4-2.1-5.1c0.9,0,1.6,0.1,2.4-0.3c0.6-0.3,1.5-1,1.5-2.4c0-0.7-0.2-1.2-0.7-1.8c-0.5-0.5-1.1-0.9-2-0.9
		c0,0-2.9,0-2.9,0V62.1z"/>
	<path fill="#03559F" d="M289.2,40v22.1h-5.8h-1.6v-9h-0.7h-4.4h-0.1v9c-1.3,0-2.8,0-4.1,0h-3.3v-17h-5.2v0.5v1.6v7.3v7.6h-0.1h-7.3
		V53v-0.4v-7.5h-5.2v8v9h-7.6c-1.3-3.2-2.7-6.4-4-9.6c-0.1-0.7-0.3-1.3-0.5-2v11.6H232c-1.5-3.5-3-6.9-4.5-10.5
		c-0.5-1.2-0.9-2.2-1.5-3.5l-0.1-0.2l-1.2-2.7l-1.7-3.9c-0.1-0.4-0.4-0.8-0.5-1.3h7.6c1.6,3.8,3.1,7.5,4.8,11.3l0,0.1
		c-0.1-0.4-0.2-1-0.3-1.4v-6.6c0-1.1,0-2.3,0-3.3h7.6c0.1,0.2,0.1,0.4,0.2,0.6c0.9,2.1,1.7,4.2,2.6,6.2l2,4.5c0-0.5-0.1-0.9-0.2-1.4
		V40h0.6h5.2h18.7h5.3v1.4V48h0.4h4.8v-8h3.8H289.2z"/>
	<path fill="#8FBAE4" d="M310.6,53.8l2.1-10h0.1l2.1,10H310.6z M295.9,53.8l2.1-10h0.1l2.1,10H295.9z M315.5,40H310l-4.6,17.5
		L300.8,40h-5.5l-5.9,22.1h4.7l1-4.7h5.9l1,4.7h6.8l1-4.7h5.9l1,4.7h4.7L315.5,40z"/>
	<path fill="#8FBAE4" d="M334.7,47.6c0-3.2-0.5-7.9-6.8-7.9c-6.7,0-7.5,4.8-7.5,11.5c0,6.7,0.8,11.5,7.5,11.5c5.8,0,7-4.1,7-8.9
		h-4.4c0,4.8-1.2,5.6-2.8,5.6c-1.9,0-2.8-1.2-2.8-7.9c0-6.2,0.5-8.5,2.8-8.5c2,0,2.7,1.4,2.7,4.6H334.7z"/>
	<polygon fill="#8FBAE4" points="335.8,62.1 340.2,62.1 340.2,52.3 345.4,52.3 345.4,62.1 349.9,62.1 349.9,40 345.4,40 345.4,48.5 
		340.2,48.5 340.2,40 335.8,40 	"/>
	<polygon fill="#8FBAE4" points="350.9,40 350.9,62.1 363.6,62.1 363.6,58.5 355.3,58.5 355.3,52.5 362.8,52.5 362.8,48.9 
		355.3,48.9 355.3,43.7 363.2,43.7 363.2,40 	"/>
	<polygon fill="#8FBAE4" points="364.2,40 364.2,62.1 368.3,62.1 368.3,46.6 368.4,46.6 373.8,62.1 378.9,62.1 378.9,40 374.8,40 
		374.8,55.2 374.8,55.2 369.4,40 	"/>
	<rect x="189.9" y="40" fill="#03559F" width="1" height="46.4"/>
	<path fill="#03559F" d="M166.7,84.6v0.2c0,0.3,0,0.5,0.1,0.7c0.1,0.2,0.2,0.4,0.3,0.6c0.2,0.2,0.4,0.3,0.6,0.4
		c0.3,0.1,0.6,0.1,1,0.1c0.3,0,0.6,0,0.8-0.1c0.3-0.1,0.5-0.2,0.6-0.3c0.2-0.1,0.3-0.3,0.4-0.5s0.2-0.5,0.2-0.8c0-0.4-0.1-0.7-0.3-1
		c-0.2-0.2-0.5-0.4-0.9-0.6l-0.8-0.3c-0.2-0.1-0.4-0.2-0.5-0.3c-0.1-0.1-0.1-0.2-0.1-0.4c0-0.2,0.1-0.3,0.2-0.4
		c0.1-0.1,0.3-0.1,0.5-0.1c0.2,0,0.4,0.1,0.5,0.2c0.1,0.1,0.1,0.3,0.1,0.6h1.3v-0.2c0-0.5-0.2-0.9-0.5-1.2c-0.3-0.3-0.8-0.4-1.4-0.4
		c-0.4,0-0.7,0-0.9,0.1c-0.3,0.1-0.5,0.2-0.6,0.4c-0.2,0.2-0.3,0.3-0.4,0.5c-0.1,0.2-0.1,0.4-0.1,0.6c0,0.4,0.1,0.7,0.3,1
		c0.2,0.2,0.5,0.4,0.9,0.6l1,0.4c0.1,0.1,0.3,0.1,0.4,0.2c0.1,0.1,0.2,0.2,0.2,0.4c0,0.2-0.1,0.4-0.2,0.5c-0.1,0.1-0.3,0.2-0.5,0.2
		c-0.2,0-0.4-0.1-0.5-0.2c-0.1-0.1-0.2-0.3-0.2-0.6v-0.2H166.7z M163.3,83v-0.2c0-0.1,0-0.3,0-0.4c0-0.1,0.1-0.2,0.1-0.4
		c0.1-0.1,0.1-0.2,0.2-0.3c0.1-0.1,0.2-0.1,0.4-0.1c0.1,0,0.3,0,0.4,0.1c0.1,0.1,0.2,0.1,0.2,0.3c0.1,0.1,0.1,0.2,0.1,0.4
		c0,0.2,0,0.3,0,0.6H163.3z M166.1,83.8v-0.3c0-0.4,0-0.8-0.1-1.2c-0.1-0.3-0.2-0.6-0.3-0.9c-0.2-0.2-0.4-0.4-0.6-0.6
		c-0.3-0.1-0.6-0.2-1-0.2c-0.5,0-0.9,0.1-1.1,0.2c-0.3,0.2-0.5,0.4-0.7,0.6c-0.2,0.3-0.3,0.6-0.3,0.9c-0.1,0.3-0.1,0.7-0.1,1.1
		c0,0.3,0,0.7,0,1c0,0.4,0.1,0.7,0.3,1c0.1,0.3,0.3,0.5,0.6,0.7c0.3,0.2,0.7,0.3,1.2,0.3c0.7,0,1.2-0.2,1.5-0.5
		c0.3-0.3,0.5-0.8,0.5-1.5h-1.3c0,0.3-0.1,0.6-0.2,0.8c-0.1,0.2-0.3,0.3-0.5,0.3c-0.1,0-0.2,0-0.3-0.1c-0.1-0.1-0.2-0.2-0.2-0.3
		c-0.1-0.1-0.1-0.3-0.1-0.4c0-0.2,0-0.3,0-0.5v-0.4H166.1z M161.3,82.9c0-0.7-0.2-1.2-0.5-1.6c-0.3-0.4-0.8-0.6-1.5-0.6
		c-0.3,0-0.6,0-0.9,0.1c-0.3,0.1-0.5,0.2-0.7,0.5c-0.2,0.2-0.4,0.5-0.5,0.9c-0.1,0.4-0.2,0.8-0.2,1.4c0,0.6,0,1,0.1,1.4
		c0.1,0.4,0.2,0.7,0.4,0.9c0.2,0.2,0.4,0.4,0.7,0.5c0.3,0.1,0.6,0.1,0.9,0.1c0.8,0,1.3-0.2,1.6-0.6c0.3-0.4,0.5-0.9,0.5-1.7h-1.4
		c0,0.4-0.1,0.8-0.2,1c-0.1,0.2-0.3,0.3-0.5,0.3c-0.2,0-0.3,0-0.4-0.1c-0.1-0.1-0.2-0.2-0.2-0.3c-0.1-0.2-0.1-0.4-0.1-0.6
		c0-0.2,0-0.5,0-0.9c0-0.3,0-0.6,0-0.8c0-0.2,0.1-0.4,0.1-0.6c0.1-0.2,0.1-0.3,0.2-0.3c0.1-0.1,0.2-0.1,0.4-0.1c0.1,0,0.2,0,0.3,0.1
		c0.1,0.1,0.1,0.2,0.2,0.3c0,0.1,0.1,0.2,0.1,0.4c0,0.1,0,0.3,0,0.4H161.3z M152.1,86.4h1.4v-3.7c0-0.6,0.2-0.9,0.7-0.9
		c0.2,0,0.4,0.1,0.5,0.2c0.1,0.1,0.1,0.3,0.1,0.6v3.8h1.4v-4.1c0-0.6-0.1-1-0.4-1.2c-0.2-0.2-0.6-0.4-1-0.4c-0.3,0-0.6,0.1-0.8,0.2
		c-0.2,0.1-0.4,0.3-0.6,0.6h0v-0.6h-1.4V86.4z M148.5,83v-0.2c0-0.1,0-0.3,0-0.4c0-0.1,0.1-0.2,0.1-0.4c0.1-0.1,0.1-0.2,0.2-0.3
		c0.1-0.1,0.2-0.1,0.4-0.1c0.1,0,0.3,0,0.4,0.1c0.1,0.1,0.2,0.1,0.2,0.3c0.1,0.1,0.1,0.2,0.1,0.4c0,0.2,0,0.3,0,0.6H148.5z
		 M151.3,83.8v-0.3c0-0.4,0-0.8-0.1-1.2c-0.1-0.3-0.2-0.6-0.3-0.9c-0.1-0.2-0.4-0.4-0.6-0.6c-0.3-0.1-0.6-0.2-1-0.2
		c-0.5,0-0.9,0.1-1.1,0.2c-0.3,0.2-0.5,0.4-0.7,0.6c-0.2,0.3-0.3,0.6-0.3,0.9c-0.1,0.3-0.1,0.7-0.1,1.1c0,0.3,0,0.7,0,1
		c0,0.4,0.1,0.7,0.3,1c0.1,0.3,0.3,0.5,0.6,0.7c0.3,0.2,0.7,0.3,1.2,0.3c0.7,0,1.2-0.2,1.5-0.5c0.3-0.3,0.5-0.8,0.5-1.5h-1.3
		c0,0.3-0.1,0.6-0.2,0.8c-0.1,0.2-0.3,0.3-0.5,0.3c-0.1,0-0.2,0-0.3-0.1c-0.1-0.1-0.2-0.2-0.2-0.3c-0.1-0.1-0.1-0.3-0.1-0.4
		c0-0.2,0-0.3,0-0.5v-0.4H151.3z M144.8,86.4h1.4v-5.5h-1.4V86.4z M144.8,80.2h1.4V79h-1.4V80.2z M143.9,82.9c0-0.7-0.2-1.2-0.5-1.6
		c-0.3-0.4-0.8-0.6-1.5-0.6c-0.3,0-0.6,0-0.9,0.1c-0.3,0.1-0.5,0.2-0.7,0.5c-0.2,0.2-0.4,0.5-0.5,0.9c-0.1,0.4-0.2,0.8-0.2,1.4
		c0,0.6,0,1,0.1,1.4c0.1,0.4,0.2,0.7,0.4,0.9s0.4,0.4,0.7,0.5c0.3,0.1,0.6,0.1,0.9,0.1c0.8,0,1.3-0.2,1.6-0.6
		c0.3-0.4,0.5-0.9,0.5-1.7h-1.4c0,0.4-0.1,0.8-0.2,1c-0.1,0.2-0.3,0.3-0.5,0.3c-0.2,0-0.3,0-0.4-0.1c-0.1-0.1-0.2-0.2-0.2-0.3
		c-0.1-0.2-0.1-0.4-0.1-0.6c0-0.2,0-0.5,0-0.9c0-0.3,0-0.6,0-0.8c0-0.2,0.1-0.4,0.1-0.6c0.1-0.2,0.1-0.3,0.2-0.3
		c0.1-0.1,0.2-0.1,0.4-0.1c0.1,0,0.2,0,0.3,0.1c0.1,0.1,0.1,0.2,0.2,0.3c0,0.1,0.1,0.2,0.1,0.4c0,0.1,0,0.3,0,0.4H143.9z
		 M134.2,84.1v0.3c0,0.7,0.2,1.2,0.5,1.6c0.4,0.4,1,0.6,1.8,0.6c0.8,0,1.4-0.2,1.9-0.5c0.4-0.4,0.7-0.9,0.7-1.7c0-0.2,0-0.4-0.1-0.6
		c0-0.2-0.1-0.4-0.2-0.5c-0.1-0.2-0.2-0.3-0.4-0.4c-0.2-0.1-0.4-0.3-0.7-0.4l-1.1-0.5c-0.3-0.1-0.5-0.3-0.6-0.4
		c-0.1-0.2-0.1-0.3-0.1-0.6c0-0.1,0-0.2,0-0.3c0-0.1,0.1-0.2,0.1-0.3s0.2-0.1,0.3-0.2c0.1,0,0.2-0.1,0.4-0.1c0.3,0,0.5,0.1,0.6,0.3
		c0.1,0.2,0.2,0.5,0.2,0.8h1.4v-0.2c0-0.3-0.1-0.6-0.2-0.9c-0.1-0.2-0.3-0.5-0.5-0.6c-0.2-0.2-0.4-0.3-0.7-0.3
		c-0.3-0.1-0.6-0.1-0.9-0.1c-0.7,0-1.3,0.2-1.7,0.5c-0.4,0.4-0.6,0.9-0.6,1.6c0,0.3,0,0.6,0.1,0.8c0.1,0.2,0.2,0.4,0.4,0.6
		c0.2,0.2,0.4,0.3,0.6,0.5c0.2,0.1,0.5,0.2,0.8,0.4c0.2,0.1,0.5,0.2,0.6,0.2c0.2,0.1,0.3,0.2,0.4,0.3c0.1,0.1,0.2,0.2,0.2,0.3
		c0,0.1,0.1,0.3,0.1,0.4c0,0.3-0.1,0.5-0.3,0.7c-0.2,0.1-0.4,0.2-0.6,0.2c-0.2,0-0.4,0-0.5-0.1s-0.2-0.1-0.3-0.2
		c-0.1-0.1-0.1-0.2-0.2-0.4c0-0.1,0-0.3,0-0.5v-0.2H134.2z M128.5,83v-0.2c0-0.1,0-0.3,0-0.4c0-0.1,0.1-0.2,0.1-0.4
		c0.1-0.1,0.1-0.2,0.2-0.3c0.1-0.1,0.2-0.1,0.4-0.1c0.1,0,0.3,0,0.4,0.1c0.1,0.1,0.2,0.1,0.2,0.3c0.1,0.1,0.1,0.2,0.1,0.4
		c0,0.2,0,0.3,0,0.6H128.5z M131.3,83.8v-0.3c0-0.4,0-0.8-0.1-1.2c-0.1-0.3-0.2-0.6-0.3-0.9c-0.2-0.2-0.4-0.4-0.6-0.6
		c-0.3-0.1-0.6-0.2-1-0.2c-0.5,0-0.9,0.1-1.1,0.2c-0.3,0.2-0.5,0.4-0.7,0.6c-0.2,0.3-0.3,0.6-0.3,0.9c-0.1,0.3-0.1,0.7-0.1,1.1
		c0,0.3,0,0.7,0,1c0,0.4,0.1,0.7,0.3,1c0.1,0.3,0.3,0.5,0.6,0.7c0.3,0.2,0.7,0.3,1.2,0.3c0.7,0,1.2-0.2,1.5-0.5
		c0.3-0.3,0.5-0.8,0.5-1.5h-1.3c0,0.3-0.1,0.6-0.2,0.8c-0.1,0.2-0.3,0.3-0.5,0.3c-0.1,0-0.2,0-0.3-0.1c-0.1-0.1-0.2-0.2-0.2-0.3
		c-0.1-0.1-0.1-0.3-0.1-0.4c0-0.2,0-0.3,0-0.5v-0.4H131.3z M124.5,86.4h1.4v-4.5h0.8v-1h-0.8v-0.5c0-0.2,0-0.3,0.1-0.3
		c0.1-0.1,0.2-0.1,0.4-0.1h0.1c0.1,0,0.1,0,0.1,0v-1c-0.3,0-0.5,0-0.8,0c-0.2,0-0.4,0-0.6,0.1c-0.2,0-0.3,0.1-0.5,0.2
		c-0.1,0.1-0.2,0.2-0.3,0.4c-0.1,0.2-0.1,0.4-0.1,0.6v0.6h-0.7v1h0.7V86.4z M121.7,86.4h1.4v-5.5h-1.4V86.4z M121.7,80.2h1.4V79
		h-1.4V80.2z M120.9,86.4v-1.2h-2.6v-6.1h-1.5v7.3H120.9z"/>
	<path fill="#03559F" d="M174.5,74.8h1.4v-7.3h-1.4V74.8z M172.1,73.1c0,0.2,0,0.3-0.1,0.4c-0.1,0.1-0.1,0.2-0.2,0.3
		c-0.1,0.1-0.2,0.1-0.3,0.1c-0.1,0-0.2,0-0.3,0c-0.2,0-0.3-0.1-0.4-0.2c-0.1-0.2-0.1-0.3-0.1-0.5c0-0.2,0.1-0.4,0.2-0.6
		s0.3-0.2,0.6-0.3c0.1,0,0.2-0.1,0.3-0.1c0.1,0,0.2-0.1,0.3-0.2V73.1z M170.8,71v-0.2c0-0.2,0.1-0.4,0.2-0.5
		c0.1-0.1,0.3-0.2,0.5-0.2c0.2,0,0.4,0.1,0.5,0.2c0.1,0.1,0.1,0.3,0.1,0.5c0,0.2,0,0.3-0.1,0.4c-0.1,0.1-0.2,0.2-0.4,0.2l-0.8,0.2
		c-0.2,0.1-0.5,0.1-0.6,0.2c-0.2,0.1-0.3,0.2-0.4,0.3c-0.1,0.1-0.2,0.3-0.3,0.5c-0.1,0.2-0.1,0.4-0.1,0.7c0,0.2,0,0.4,0.1,0.6
		c0,0.2,0.1,0.4,0.2,0.5c0.1,0.1,0.2,0.3,0.4,0.4c0.2,0.1,0.4,0.1,0.6,0.1c0.3,0,0.6,0,0.8-0.1s0.4-0.3,0.6-0.6h0
		c0,0.1,0,0.2,0.1,0.3c0,0.1,0.1,0.2,0.1,0.3h1.4c-0.1-0.2-0.1-0.3-0.1-0.5c0-0.1,0-0.3,0-0.6v-2.9c0-0.2,0-0.5-0.1-0.7
		c-0.1-0.2-0.1-0.4-0.3-0.5c-0.1-0.1-0.3-0.3-0.6-0.3c-0.3-0.1-0.6-0.1-1-0.1c-0.3,0-0.5,0-0.8,0.1s-0.4,0.2-0.6,0.3
		c-0.2,0.1-0.3,0.3-0.4,0.5c-0.1,0.2-0.2,0.5-0.2,0.8V71H170.8z M164.4,74.8h1.4v-3.7c0-0.6,0.2-0.9,0.7-0.9c0.2,0,0.4,0.1,0.5,0.2
		c0.1,0.1,0.1,0.3,0.1,0.6v3.8h1.4v-4.1c0-0.6-0.1-1-0.4-1.2c-0.2-0.2-0.6-0.4-1-0.4c-0.3,0-0.6,0.1-0.8,0.2s-0.4,0.3-0.6,0.6h0
		v-0.6h-1.3V74.8z M160.7,71.2c0-0.2,0-0.4,0.1-0.6s0.1-0.3,0.2-0.4c0.1-0.1,0.2-0.1,0.4-0.1c0.3,0,0.5,0.2,0.6,0.5
		c0.1,0.3,0.2,0.8,0.2,1.5c0,0.7-0.1,1.2-0.2,1.5c-0.1,0.3-0.3,0.4-0.6,0.4c-0.2,0-0.3,0-0.4-0.1c-0.1-0.1-0.2-0.2-0.2-0.4
		s-0.1-0.4-0.1-0.6c0-0.2,0-0.5,0-0.8S160.7,71.5,160.7,71.2 M159.3,73.3c0.1,0.4,0.2,0.7,0.3,0.9c0.2,0.2,0.4,0.4,0.7,0.5
		c0.3,0.1,0.6,0.2,1.1,0.2c0.4,0,0.7-0.1,1-0.2c0.3-0.1,0.5-0.3,0.7-0.6c0.2-0.2,0.3-0.5,0.4-0.9c0.1-0.4,0.1-0.8,0.1-1.2
		c0-0.5,0-0.9-0.1-1.3c-0.1-0.4-0.2-0.7-0.3-0.9c-0.2-0.2-0.4-0.4-0.7-0.5c-0.3-0.1-0.6-0.2-1.1-0.2c-0.4,0-0.7,0.1-1,0.2
		s-0.5,0.3-0.7,0.6c-0.2,0.2-0.3,0.5-0.4,0.9c-0.1,0.4-0.1,0.8-0.1,1.2C159.2,72.5,159.3,72.9,159.3,73.3 M157,74.8h1.4v-5.5H157
		V74.8z M157,68.6h1.4v-1.2H157V68.6z M154.1,69.3h-0.7v1h0.7v3.2c0,0.3,0,0.5,0.1,0.7c0,0.2,0.1,0.3,0.2,0.4
		c0.1,0.1,0.2,0.2,0.4,0.2c0.2,0,0.4,0.1,0.7,0.1c0.2,0,0.3,0,0.5,0c0.1,0,0.3,0,0.5,0v-1c0,0-0.1,0-0.2,0c-0.1,0-0.1,0-0.2,0
		c-0.2,0-0.3,0-0.4-0.1s-0.1-0.2-0.1-0.5v-3h0.8v-1h-0.8v-1.6h-1.4V69.3z M151.4,73.1c0,0.2,0,0.3-0.1,0.4c-0.1,0.1-0.1,0.2-0.2,0.3
		c-0.1,0.1-0.2,0.1-0.3,0.1c-0.1,0-0.2,0-0.3,0c-0.2,0-0.3-0.1-0.4-0.2c-0.1-0.2-0.1-0.3-0.1-0.5c0-0.2,0.1-0.4,0.2-0.6
		s0.3-0.2,0.6-0.3c0.1,0,0.2-0.1,0.3-0.1c0.1,0,0.2-0.1,0.3-0.2V73.1z M150,71v-0.2c0-0.2,0.1-0.4,0.2-0.5c0.1-0.1,0.3-0.2,0.5-0.2
		c0.2,0,0.4,0.1,0.5,0.2c0.1,0.1,0.1,0.3,0.1,0.5c0,0.2,0,0.3-0.1,0.4c-0.1,0.1-0.2,0.2-0.4,0.2l-0.8,0.2c-0.2,0.1-0.5,0.1-0.6,0.2
		c-0.2,0.1-0.3,0.2-0.4,0.3s-0.2,0.3-0.3,0.5c-0.1,0.2-0.1,0.4-0.1,0.7c0,0.2,0,0.4,0.1,0.6c0,0.2,0.1,0.4,0.2,0.5
		c0.1,0.1,0.2,0.3,0.4,0.4s0.4,0.1,0.6,0.1c0.3,0,0.6,0,0.8-0.1c0.2-0.1,0.4-0.3,0.6-0.6h0c0,0.1,0,0.2,0.1,0.3
		c0,0.1,0.1,0.2,0.1,0.3h1.4c-0.1-0.2-0.1-0.3-0.1-0.5c0-0.1,0-0.3,0-0.6v-2.9c0-0.2,0-0.5-0.1-0.7c-0.1-0.2-0.1-0.4-0.3-0.5
		c-0.1-0.1-0.3-0.3-0.6-0.3c-0.3-0.1-0.6-0.1-1-0.1c-0.3,0-0.5,0-0.8,0.1s-0.4,0.2-0.6,0.3c-0.2,0.1-0.3,0.3-0.4,0.5
		c-0.1,0.2-0.2,0.5-0.2,0.8V71H150z M145.9,69.3h-0.7v1h0.7v3.2c0,0.3,0,0.5,0.1,0.7c0,0.2,0.1,0.3,0.2,0.4c0.1,0.1,0.2,0.2,0.4,0.2
		c0.2,0,0.4,0.1,0.7,0.1c0.2,0,0.3,0,0.5,0c0.1,0,0.3,0,0.5,0v-1c0,0-0.1,0-0.2,0c-0.1,0-0.1,0-0.2,0c-0.2,0-0.3,0-0.4-0.1
		s-0.1-0.2-0.1-0.5v-3h0.8v-1h-0.8v-1.6h-1.4V69.3z M143.2,74.8h1.3v-5.5h-1.4v3.7c0,0.6-0.2,0.9-0.7,0.9c-0.2,0-0.4-0.1-0.5-0.2
		c-0.1-0.1-0.1-0.3-0.1-0.6v-3.8h-1.4v4.1c0,0.6,0.1,1,0.4,1.2c0.2,0.2,0.6,0.4,1,0.4c0.3,0,0.6-0.1,0.8-0.2
		c0.2-0.1,0.4-0.3,0.6-0.6h0V74.8z M136.7,70.7c0.1-0.3,0.3-0.5,0.6-0.5c0.3,0,0.5,0.2,0.6,0.5c0.1,0.3,0.1,0.8,0.1,1.4
		c0,0.6,0,1.1-0.1,1.4c-0.1,0.3-0.3,0.5-0.6,0.5c-0.3,0-0.5-0.2-0.6-0.5c-0.1-0.3-0.1-0.8-0.1-1.4C136.6,71.4,136.6,71,136.7,70.7
		 M135.2,76.6h1.4v-2.3h0c0.1,0.2,0.3,0.4,0.5,0.5c0.2,0.1,0.4,0.2,0.7,0.2c0.6,0,1-0.2,1.3-0.7c0.3-0.5,0.4-1.2,0.4-2.2
		s-0.1-1.8-0.4-2.2c-0.3-0.5-0.7-0.7-1.3-0.7c-0.3,0-0.5,0.1-0.7,0.2c-0.2,0.1-0.4,0.3-0.5,0.6h0v-0.6h-1.4V76.6z M127.4,74.8h1.4
		v-3.6c0-0.3,0.1-0.6,0.2-0.7c0.1-0.2,0.3-0.2,0.5-0.2c0.2,0,0.3,0.1,0.4,0.2c0.1,0.1,0.1,0.3,0.1,0.5v3.8h1.4v-3.6
		c0-0.3,0.1-0.6,0.2-0.7c0.1-0.2,0.3-0.2,0.5-0.2c0.2,0,0.3,0.1,0.4,0.2c0.1,0.1,0.1,0.3,0.1,0.5v3.8h1.4v-4c0-0.5-0.1-0.9-0.3-1.2
		c-0.2-0.3-0.6-0.4-1-0.4c-0.3,0-0.6,0.1-0.9,0.2c-0.2,0.1-0.4,0.4-0.5,0.7h0c-0.1-0.3-0.2-0.5-0.4-0.7c-0.2-0.2-0.5-0.2-0.8-0.2
		c-0.3,0-0.6,0.1-0.8,0.2c-0.2,0.1-0.4,0.3-0.6,0.5h0v-0.6h-1.4V74.8z M123.6,71.2c0-0.2,0-0.4,0.1-0.6c0.1-0.2,0.1-0.3,0.2-0.4
		c0.1-0.1,0.2-0.1,0.4-0.1c0.3,0,0.5,0.2,0.6,0.5c0.1,0.3,0.2,0.8,0.2,1.5c0,0.7-0.1,1.2-0.2,1.5c-0.1,0.3-0.3,0.4-0.6,0.4
		c-0.2,0-0.3,0-0.4-0.1c-0.1-0.1-0.2-0.2-0.2-0.4c-0.1-0.2-0.1-0.4-0.1-0.6c0-0.2,0-0.5,0-0.8S123.6,71.5,123.6,71.2 M122.3,73.3
		c0.1,0.4,0.2,0.7,0.3,0.9c0.2,0.2,0.4,0.4,0.7,0.5c0.3,0.1,0.6,0.2,1.1,0.2c0.4,0,0.7-0.1,1-0.2s0.5-0.3,0.7-0.6
		c0.2-0.2,0.3-0.5,0.4-0.9s0.1-0.8,0.1-1.2c0-0.5,0-0.9-0.1-1.3c-0.1-0.4-0.2-0.7-0.3-0.9c-0.2-0.2-0.4-0.4-0.7-0.5
		c-0.3-0.1-0.6-0.2-1.1-0.2c-0.4,0-0.7,0.1-1,0.2c-0.3,0.1-0.5,0.3-0.7,0.6c-0.2,0.2-0.3,0.5-0.4,0.9c-0.1,0.4-0.1,0.8-0.1,1.2
		C122.2,72.5,122.2,72.9,122.3,73.3 M121.4,69.9c0-0.3,0-0.5-0.1-0.9c0-0.3-0.1-0.6-0.3-0.8c-0.2-0.3-0.4-0.5-0.7-0.7
		c-0.3-0.2-0.7-0.3-1.2-0.3c-0.6,0-1,0.1-1.3,0.3c-0.3,0.2-0.6,0.4-0.8,0.8c-0.2,0.3-0.3,0.7-0.3,1.2c-0.1,0.5-0.1,1-0.1,1.5
		c0,0.6,0,1.1,0.1,1.5c0.1,0.5,0.2,0.9,0.3,1.2c0.2,0.3,0.4,0.6,0.8,0.8c0.3,0.2,0.8,0.3,1.3,0.3c0.5,0,0.9-0.1,1.2-0.2
		c0.3-0.2,0.5-0.4,0.7-0.6c0.2-0.3,0.3-0.6,0.3-0.9c0.1-0.4,0.1-0.7,0.1-1.1H120c0,0.4,0,0.7-0.1,1c0,0.2-0.1,0.4-0.2,0.6
		c-0.1,0.1-0.2,0.2-0.3,0.3c-0.1,0-0.2,0.1-0.4,0.1c-0.2,0-0.3,0-0.4-0.1c-0.1-0.1-0.2-0.2-0.3-0.4c-0.1-0.2-0.1-0.5-0.2-0.8
		s-0.1-0.8-0.1-1.3c0-0.5,0-1,0-1.3c0-0.4,0.1-0.6,0.1-0.9c0.1-0.2,0.2-0.4,0.3-0.5c0.1-0.1,0.3-0.1,0.5-0.1c0.3,0,0.6,0.1,0.7,0.4
		c0.1,0.2,0.2,0.6,0.2,1.2H121.4z"/>
	<path fill="#03559F" d="M154.4,63.2h1.4v-3.3c0-0.2,0-0.3,0.1-0.5c0.1-0.1,0.1-0.2,0.2-0.3c0.1-0.1,0.2-0.1,0.3-0.2
		c0.1,0,0.2-0.1,0.4-0.1c0.1,0,0.1,0,0.2,0c0.1,0,0.1,0,0.2,0v-1.4c0,0-0.1,0-0.1,0c0,0-0.1,0-0.1,0c-0.3,0-0.5,0.1-0.7,0.2
		c-0.2,0.2-0.4,0.4-0.5,0.6h0v-0.7h-1.4V63.2z M150.6,59.6c0-0.2,0-0.4,0.1-0.6c0.1-0.2,0.1-0.3,0.2-0.4c0.1-0.1,0.2-0.1,0.4-0.1
		c0.3,0,0.5,0.2,0.6,0.5c0.1,0.3,0.2,0.8,0.2,1.5c0,0.7-0.1,1.2-0.2,1.5c-0.1,0.3-0.3,0.4-0.6,0.4c-0.2,0-0.3,0-0.4-0.1
		c-0.1-0.1-0.2-0.2-0.2-0.4c-0.1-0.2-0.1-0.4-0.1-0.6c0-0.2,0-0.5,0-0.8S150.6,59.9,150.6,59.6 M149.3,61.7c0.1,0.4,0.2,0.7,0.3,0.9
		c0.2,0.2,0.4,0.4,0.7,0.5c0.3,0.1,0.6,0.2,1.1,0.2c0.4,0,0.7-0.1,1-0.2c0.3-0.1,0.5-0.3,0.7-0.6c0.2-0.2,0.3-0.5,0.4-0.9
		c0.1-0.4,0.1-0.8,0.1-1.2c0-0.5,0-0.9-0.1-1.3c-0.1-0.4-0.2-0.7-0.3-0.9c-0.2-0.2-0.4-0.4-0.7-0.5c-0.3-0.1-0.6-0.2-1.1-0.2
		c-0.4,0-0.7,0.1-1,0.2c-0.3,0.1-0.5,0.3-0.7,0.6c-0.2,0.2-0.3,0.5-0.4,0.9s-0.1,0.8-0.1,1.2C149.2,60.9,149.2,61.3,149.3,61.7
		 M146.6,63.2h1.4v-4.5h0.8v-1H148v-0.5c0-0.2,0-0.3,0.1-0.3c0.1-0.1,0.2-0.1,0.4-0.1h0.1c0.1,0,0.1,0,0.1,0v-1c-0.3,0-0.5,0-0.8,0
		c-0.2,0-0.4,0-0.6,0.1c-0.2,0-0.3,0.1-0.5,0.2c-0.1,0.1-0.2,0.2-0.3,0.4c-0.1,0.2-0.1,0.4-0.1,0.6v0.6h-0.7v1h0.7V63.2z
		 M140.4,63.2h1.4v-3.3c0-0.2,0-0.3,0.1-0.5c0.1-0.1,0.1-0.2,0.2-0.3c0.1-0.1,0.2-0.1,0.3-0.2c0.1,0,0.2-0.1,0.4-0.1
		c0.1,0,0.1,0,0.2,0c0.1,0,0.1,0,0.2,0v-1.4c0,0-0.1,0-0.1,0c0,0-0.1,0-0.1,0c-0.3,0-0.5,0.1-0.7,0.2c-0.2,0.2-0.4,0.4-0.5,0.6h0
		v-0.7h-1.4V63.2z M136.8,59.8v-0.2c0-0.1,0-0.3,0-0.4c0-0.1,0.1-0.2,0.1-0.4c0.1-0.1,0.1-0.2,0.2-0.3c0.1-0.1,0.2-0.1,0.4-0.1
		c0.1,0,0.3,0,0.4,0.1c0.1,0.1,0.2,0.1,0.2,0.3c0.1,0.1,0.1,0.2,0.1,0.4c0,0.2,0,0.3,0,0.6H136.8z M139.6,60.6v-0.3
		c0-0.4,0-0.8-0.1-1.2c-0.1-0.3-0.2-0.6-0.3-0.9c-0.1-0.2-0.4-0.4-0.6-0.6c-0.3-0.1-0.6-0.2-1-0.2c-0.5,0-0.9,0.1-1.1,0.2
		c-0.3,0.2-0.5,0.4-0.7,0.6c-0.2,0.3-0.3,0.6-0.3,0.9c-0.1,0.3-0.1,0.7-0.1,1.1c0,0.3,0,0.7,0,1c0,0.4,0.1,0.7,0.3,1
		c0.1,0.3,0.3,0.5,0.6,0.7c0.3,0.2,0.7,0.3,1.2,0.3c0.7,0,1.2-0.2,1.5-0.5c0.3-0.3,0.5-0.8,0.5-1.5h-1.3c0,0.3-0.1,0.6-0.2,0.8
		c-0.1,0.2-0.3,0.3-0.5,0.3c-0.1,0-0.2,0-0.3-0.1c-0.1-0.1-0.2-0.2-0.2-0.3c-0.1-0.1-0.1-0.3-0.1-0.4c0-0.2,0-0.3,0-0.5v-0.4H139.6z
		 M132.7,57.7H132v1h0.7v3.2c0,0.3,0,0.5,0.1,0.7c0,0.2,0.1,0.3,0.2,0.4c0.1,0.1,0.2,0.2,0.4,0.2c0.2,0,0.4,0.1,0.7,0.1
		c0.2,0,0.3,0,0.5,0c0.1,0,0.3,0,0.5,0v-1c0,0-0.1,0-0.2,0c-0.1,0-0.1,0-0.2,0c-0.2,0-0.3,0-0.4-0.1c-0.1-0.1-0.1-0.2-0.1-0.5v-3
		h0.8v-1h-0.8v-1.6h-1.4V57.7z M127.2,63.2h1.4v-3.7c0-0.6,0.2-0.9,0.7-0.9c0.2,0,0.4,0.1,0.5,0.2c0.1,0.1,0.1,0.3,0.1,0.6v3.8h1.4
		v-4.1c0-0.6-0.1-1-0.4-1.2c-0.2-0.2-0.6-0.4-1-0.4c-0.3,0-0.6,0.1-0.8,0.2c-0.2,0.1-0.4,0.3-0.6,0.6h0v-0.6h-1.3V63.2z M123.6,59.8
		v-0.2c0-0.1,0-0.3,0-0.4c0-0.1,0.1-0.2,0.1-0.4c0.1-0.1,0.1-0.2,0.2-0.3c0.1-0.1,0.2-0.1,0.4-0.1s0.3,0,0.4,0.1
		c0.1,0.1,0.2,0.1,0.2,0.3c0.1,0.1,0.1,0.2,0.1,0.4c0,0.2,0,0.3,0,0.6H123.6z M126.4,60.6v-0.3c0-0.4,0-0.8-0.1-1.2
		c-0.1-0.3-0.2-0.6-0.3-0.9c-0.2-0.2-0.4-0.4-0.6-0.6c-0.3-0.1-0.6-0.2-1-0.2c-0.5,0-0.9,0.1-1.1,0.2c-0.3,0.2-0.5,0.4-0.7,0.6
		c-0.2,0.3-0.3,0.6-0.3,0.9c-0.1,0.3-0.1,0.7-0.1,1.1c0,0.3,0,0.7,0,1c0,0.4,0.1,0.7,0.3,1c0.1,0.3,0.3,0.5,0.6,0.7
		c0.3,0.2,0.7,0.3,1.2,0.3c0.7,0,1.2-0.2,1.5-0.5c0.3-0.3,0.5-0.8,0.5-1.5h-1.3c0,0.3-0.1,0.6-0.2,0.8c-0.1,0.2-0.3,0.3-0.5,0.3
		c-0.1,0-0.2,0-0.3-0.1c-0.1-0.1-0.2-0.2-0.2-0.3c-0.1-0.1-0.1-0.3-0.1-0.4c0-0.2,0-0.3,0-0.5v-0.4H126.4z M121.4,58.3
		c0-0.3,0-0.5-0.1-0.9c0-0.3-0.1-0.6-0.3-0.8c-0.2-0.3-0.4-0.5-0.7-0.6c-0.3-0.2-0.7-0.3-1.2-0.3c-0.6,0-1,0.1-1.3,0.3
		c-0.3,0.2-0.6,0.4-0.8,0.8c-0.2,0.3-0.3,0.7-0.3,1.2c-0.1,0.5-0.1,1-0.1,1.5c0,0.6,0,1.1,0.1,1.5c0.1,0.5,0.2,0.9,0.3,1.2
		c0.2,0.3,0.4,0.6,0.8,0.8c0.3,0.2,0.8,0.3,1.3,0.3c0.5,0,0.9-0.1,1.2-0.2c0.3-0.2,0.5-0.4,0.7-0.6c0.2-0.3,0.3-0.6,0.3-0.9
		c0.1-0.4,0.1-0.7,0.1-1.1H120c0,0.4,0,0.7-0.1,1c0,0.2-0.1,0.4-0.2,0.6s-0.2,0.2-0.3,0.3c-0.1,0-0.2,0.1-0.4,0.1
		c-0.2,0-0.3,0-0.4-0.1c-0.1-0.1-0.2-0.2-0.3-0.4c-0.1-0.2-0.1-0.5-0.2-0.8s-0.1-0.8-0.1-1.3c0-0.5,0-1,0-1.3c0-0.4,0.1-0.6,0.1-0.9
		c0.1-0.2,0.2-0.4,0.3-0.5c0.1-0.1,0.3-0.1,0.5-0.1c0.3,0,0.6,0.1,0.7,0.4c0.1,0.2,0.2,0.6,0.2,1.2H121.4z"/>
	<path fill="#BDCE0A" d="M89.5,77v1.2c0,2.8,0.7,4.9,2.2,6.4c1.5,1.5,3.9,2.3,7.3,2.3c3.3,0,5.8-0.7,7.7-2.2c1.8-1.5,2.8-3.8,2.8-7
		c0-0.9-0.1-1.8-0.3-2.5s-0.5-1.4-0.9-2.1c-0.4-0.6-1-1.2-1.8-1.8c-0.7-0.5-1.7-1.1-2.8-1.6l-4.7-2c-1.3-0.5-2.1-1.1-2.5-1.7
		c-0.4-0.6-0.6-1.4-0.6-2.3c0-0.4,0-0.9,0.1-1.3c0.1-0.4,0.3-0.8,0.5-1.1c0.3-0.3,0.6-0.6,1.1-0.8c0.4-0.2,1-0.3,1.7-0.3
		c1.2,0,2,0.4,2.5,1.2c0.5,0.8,0.8,1.9,0.8,3.3h5.8v-0.8c0-1.4-0.2-2.7-0.7-3.7c-0.5-1-1.1-1.9-1.9-2.5c-0.8-0.7-1.8-1.1-2.9-1.4
		c-1.1-0.3-2.4-0.4-3.7-0.4c-2.9,0-5.2,0.7-6.8,2.2c-1.7,1.5-2.5,3.7-2.5,6.6c0,1.2,0.2,2.3,0.5,3.3c0.3,0.9,0.8,1.8,1.4,2.5
		c0.7,0.7,1.5,1.3,2.5,1.9c1,0.5,2.1,1,3.5,1.5c1,0.3,1.9,0.7,2.5,1c0.7,0.3,1.2,0.7,1.7,1.1c0.4,0.4,0.7,0.8,0.9,1.3
		c0.2,0.5,0.3,1.1,0.3,1.7c0,1.3-0.4,2.2-1.1,2.8c-0.7,0.6-1.6,0.9-2.5,0.9c-0.8,0-1.5-0.1-2-0.3c-0.5-0.2-0.9-0.5-1.2-0.9
		c-0.3-0.4-0.5-0.9-0.6-1.4c-0.1-0.6-0.2-1.2-0.2-1.9V77H89.5z"/>
	<path fill="#016266" d="M44.6,66.5c0-1.1-0.1-2.3-0.2-3.5c-0.2-1.2-0.5-2.4-1.2-3.5c-0.6-1.1-1.5-2-2.8-2.7c-1.2-0.7-2.9-1-5.1-1
		c-2.3,0-4.1,0.4-5.4,1.2c-1.3,0.8-2.4,1.8-3.1,3.2c-0.7,1.4-1.2,3-1.4,4.9c-0.2,1.9-0.3,4-0.3,6.3s0.1,4.4,0.3,6.3
		c0.2,1.9,0.7,3.6,1.4,4.9c0.7,1.4,1.7,2.4,3.1,3.2c1.3,0.8,3.2,1.2,5.4,1.2c2,0,3.6-0.3,4.8-1c1.2-0.6,2.2-1.5,2.9-2.6
		c0.7-1.1,1.2-2.4,1.4-3.8c0.3-1.5,0.4-3,0.4-4.6h-6c0,1.6-0.1,2.9-0.3,3.9c-0.2,1-0.5,1.8-0.8,2.3c-0.3,0.5-0.7,0.9-1.2,1.1
		c-0.5,0.2-1,0.3-1.5,0.3c-0.6,0-1.2-0.1-1.7-0.4c-0.5-0.3-0.9-0.8-1.2-1.6c-0.3-0.8-0.6-1.9-0.7-3.3c-0.2-1.4-0.2-3.2-0.2-5.5
		c0-2.1,0.1-3.9,0.2-5.4c0.1-1.5,0.3-2.7,0.6-3.6c0.3-0.9,0.7-1.6,1.2-2c0.5-0.4,1.1-0.6,1.9-0.6c1.4,0,2.3,0.5,2.8,1.5
		c0.5,1,0.8,2.6,0.8,4.8H44.6z"/>
	<path fill="#0098A1" d="M67.2,66.5c0-1.1-0.1-2.3-0.2-3.5c-0.2-1.2-0.5-2.4-1.2-3.5c-0.6-1.1-1.5-2-2.8-2.7c-1.2-0.7-2.9-1-5.1-1
		c-2.3,0-4.1,0.4-5.4,1.2c-1.3,0.8-2.4,1.8-3.1,3.2c-0.7,1.4-1.2,3-1.4,4.9c-0.2,1.9-0.3,4-0.3,6.3s0.1,4.4,0.3,6.3
		c0.2,1.9,0.7,3.6,1.4,4.9c0.7,1.4,1.7,2.4,3.1,3.2c1.3,0.8,3.2,1.2,5.4,1.2c2,0,3.6-0.3,4.8-1c1.2-0.6,2.2-1.5,2.9-2.6
		c0.7-1.1,1.2-2.4,1.4-3.8c0.3-1.5,0.4-3,0.4-4.6h-6c0,1.6-0.1,2.9-0.3,3.9c-0.2,1-0.5,1.8-0.8,2.3c-0.3,0.5-0.7,0.9-1.2,1.1
		c-0.5,0.2-1,0.3-1.5,0.3c-0.6,0-1.2-0.1-1.7-0.4c-0.5-0.3-0.9-0.8-1.2-1.6c-0.3-0.8-0.6-1.9-0.7-3.3c-0.2-1.4-0.2-3.2-0.2-5.5
		c0-2.1,0.1-3.9,0.2-5.4c0.1-1.5,0.3-2.7,0.6-3.6c0.3-0.9,0.7-1.6,1.2-2c0.5-0.4,1.1-0.6,1.9-0.6c1.4,0,2.3,0.5,2.8,1.5
		c0.5,1,0.8,2.6,0.8,4.8H67.2z"/>
	<polygon fill="#58AC32" points="87.4,86.4 87.4,81.4 76.7,81.4 76.7,56.4 70.7,56.4 70.7,86.4 	"/>
</g>
</svg>
